<?xml version="1.0" encoding="UTF-8" standalone="no"?><!DOCTYPE svg PUBLIC "-//W3C//DTD SVG 1.1//EN" "http://www.w3.org/Graphics/SVG/1.1/DTD/svg11.dtd"><svg width="100%" height="100%" viewBox="0 0 1038 1050" version="1.1" xmlns="http://www.w3.org/2000/svg" xmlns:xlink="http://www.w3.org/1999/xlink" xml:space="preserve" xmlns:serif="http://www.serif.com/" style="fill-rule:evenodd;clip-rule:evenodd;stroke-linejoin:round;stroke-miterlimit:2;"><g id="Layer1"><ellipse cx="518.75" cy="525" rx="515.316" ry="519.871" style="fill:#fff;"/></g><g><path d="M506.86,80.617c-5.104,8.384 -11.301,20.414 -13.489,26.612c-2.187,6.197 -6.926,15.675 -10.936,21.143c-4.375,6.198 -6.562,13.124 -5.468,18.957c1.093,5.104 0.364,9.478 -1.094,9.478c-5.104,0 -14.217,20.779 -14.217,32.08c-0,5.833 -2.188,12.759 -5.104,14.947c-2.916,2.552 -6.562,14.946 -7.656,28.07c-1.822,13.853 -4.374,23.331 -6.926,23.331c-2.187,-0 -12.759,-8.749 -23.331,-19.321c-20.05,-20.415 -57.963,-41.558 -67.441,-37.913c-6.198,2.552 -10.937,56.505 -5.468,63.431c2.187,2.552 2.551,10.937 1.093,18.957c-1.458,8.749 -0.729,20.414 1.823,27.705c5.468,16.405 2.552,20.05 -8.385,10.208c-9.842,-9.114 -24.424,-17.134 -24.424,-13.124c0.364,1.458 5.832,13.488 12.759,26.612c12.759,24.06 17.134,24.789 7.291,1.094c-8.385,-19.686 -4.375,-18.228 5.833,2.187c4.739,9.843 9.842,17.134 11.665,16.04c1.458,-0.729 2.187,-0.365 1.823,1.458c-1.458,5.833 5.103,19.321 9.478,19.321c2.187,0 4.375,4.01 4.375,9.478c-0,8.02 -1.459,9.114 -10.937,8.385c-6.197,-0.729 -13.488,-2.552 -16.04,-4.375c-2.552,-2.187 -5.468,-2.551 -6.926,-1.458c-1.094,1.458 -5.469,0.729 -9.479,-1.458c-5.103,-2.916 -6.561,-2.916 -4.739,-0c5.104,8.02 -5.103,3.645 -25.883,-10.572c-11.3,-8.02 -22.966,-13.853 -25.882,-12.759c-2.552,0.729 -3.646,0.364 -2.552,-1.458c2.552,-4.375 -37.913,-33.903 -42.288,-30.987c-5.468,3.281 -3.645,8.749 2.552,8.749c2.917,0 4.375,1.459 3.281,3.646c-1.094,1.823 -8.385,3.645 -15.675,3.645c-13.489,-0.364 -13.489,-0.364 -4.375,-5.468l9.114,-4.739l-12.76,-1.823l-12.759,-1.458l13.489,-0.364c17.862,-1.094 19.685,-5.104 6.197,-14.947c-8.749,-6.562 -12.03,-7.291 -16.04,-4.01c-5.468,4.375 -25.883,1.823 -29.164,-3.645c-1.823,-3.281 6.926,-2.552 20.05,1.822c16.04,5.104 8.749,-6.197 -16.405,-25.518c-23.331,-18.227 -32.08,-27.341 -25.518,-27.341c0.729,-0 18.957,13.124 40.1,29.528c21.144,16.04 38.278,28.435 38.278,27.341c-0,-0.729 4.739,2.917 10.207,8.02c18.228,17.134 67.077,48.485 72.181,46.662c7.655,-2.916 6.197,-10.571 -6.927,-37.548c-13.853,-28.799 -17.498,-37.548 -15.311,-37.548c1.094,-0 9.114,14.946 18.592,33.173c19.686,39.736 25.518,41.194 7.291,1.823c-16.769,-36.819 -13.124,-35.725 5.104,1.458c7.655,16.405 14.946,28.071 16.04,26.248c1.093,-1.823 -2.917,-12.759 -8.749,-24.789c-6.198,-11.666 -10.937,-23.696 -10.937,-26.248c0,-4.01 -37.548,-23.331 -43.016,-21.873c-1.459,0.365 -8.385,-2.187 -15.311,-5.103c-6.927,-3.281 -23.331,-8.749 -36.455,-12.03c-13.124,-3.281 -31.716,-8.385 -41.923,-10.937c-17.863,-5.103 -27.706,-6.562 -37.913,-5.833c-6.926,0.365 -2.552,20.415 8.749,37.549c5.104,7.655 9.114,16.04 9.114,18.592c-0,2.552 4.01,8.749 8.749,13.123c5.104,4.74 8.02,10.572 7.291,13.124c-1.094,2.917 1.458,8.385 5.468,12.395c4.375,4.374 7.656,9.113 7.656,11.301c-0,1.822 1.822,3.645 4.374,3.645c2.187,0 2.917,1.094 1.823,2.552c-1.458,1.094 0.364,4.01 3.645,6.562c5.469,4.01 17.863,2.552 50.308,-5.468c2.187,-0.365 6.926,-0.729 10.572,-0.365c7.291,0.365 7.291,0.365 -0,5.833c-6.562,5.468 -6.197,5.833 4.374,3.645c7.656,-1.458 12.76,-0.364 16.04,3.281c5.104,6.198 4.01,6.927 -16.404,10.937c-10.572,2.187 -10.572,2.187 -3.646,-3.646c6.927,-5.468 6.562,-5.468 -7.291,-3.281c-13.852,2.552 -14.217,2.552 -7.291,-3.281c6.927,-5.832 6.198,-6.197 -14.581,-4.01c-12.03,1.459 -22.602,3.281 -23.331,4.01c-1.094,0.729 2.187,5.469 6.561,10.208l8.02,8.749l-11.301,3.645c-5.832,2.188 -12.03,6.562 -13.488,9.843c-3.281,9.114 8.385,29.893 20.05,36.09c12.759,6.562 18.592,16.769 8.02,14.218c-6.197,-1.823 -27.705,4.739 -78.377,23.331c-25.883,9.842 -68.9,32.08 -74.733,39.371c-6.197,7.655 -2.187,11.665 29.164,28.799c33.539,18.592 40.465,21.144 53.589,21.873c6.197,-0 10.572,1.458 9.843,2.916c-1.459,2.188 27.341,11.666 64.16,21.509c9.114,2.187 18.592,4.739 21.144,5.468c2.551,0.729 -5.833,11.301 -18.957,24.789c-17.863,17.863 -24.06,26.976 -26.247,37.548c-1.458,7.656 -4.375,16.04 -6.562,18.957c-3.281,4.374 -2.552,4.739 4.374,3.281c4.375,-1.458 7.291,-0.729 5.833,1.093c-1.093,1.823 -5.103,3.281 -9.113,3.281c-3.646,0 -6.927,1.823 -6.927,4.01c0,2.552 3.281,3.281 8.02,1.823c4.739,-1.094 10.572,-2.187 13.124,-2.187c2.187,-0 4.374,-2.187 4.374,-4.739c0,-2.917 6.927,-4.375 24.061,-3.646c27.705,0.365 32.809,2.917 15.675,7.291c-11.301,3.281 -19.321,12.03 -10.572,12.03c2.187,0 2.917,-1.458 1.823,-3.645c-1.094,-1.823 -0.365,-3.646 1.823,-3.646c2.552,0 3.645,2.552 2.187,5.468c-2.552,7.291 2.552,6.927 16.04,-1.093c5.833,-3.646 9.478,-8.385 8.02,-10.207c-1.458,-1.823 -1.094,-2.188 1.094,-0.365c4.739,3.645 9.843,3.281 7.291,-1.094c-1.094,-2.187 0.364,-3.645 3.281,-3.645c3.281,-0 5.832,-1.823 5.832,-3.646c0,-2.187 1.459,-3.645 3.646,-3.645c1.823,-0 2.552,2.916 1.458,6.197c-1.458,4.375 -1.094,5.104 1.094,2.187c1.822,-2.551 8.749,-5.468 15.675,-6.561c6.927,-1.094 18.592,-3.646 25.519,-5.469c17.498,-5.103 18.227,-4.739 18.227,5.104c-0,9.843 -17.134,42.288 -22.237,42.288c-2.188,-0 -2.552,-1.823 -1.459,-3.646c1.094,-2.187 1.094,-3.645 -0.729,-4.01c-1.458,0 -7.291,-0.729 -12.759,-1.458c-8.385,-1.094 -11.665,1.823 -28.07,28.07c-10.572,16.04 -17.863,30.257 -16.769,31.716c1.458,1.093 4.374,-0.729 6.926,-4.375c2.552,-3.281 6.927,-6.197 9.478,-6.197c7.656,-0 30.622,-12.03 43.017,-22.602c13.488,-11.666 21.144,-13.488 17.134,-3.646c-4.739,10.208 -9.843,74.368 -7.291,90.773c3.645,24.424 9.478,26.247 33.538,9.842c11.666,-8.02 30.987,-22.966 42.652,-33.173c12.03,-10.572 22.967,-19.321 24.789,-19.321c1.459,-0 2.917,4.374 3.281,9.842c0.365,20.415 4.375,43.382 8.749,52.131c2.917,5.103 5.833,15.311 7.291,22.602c1.094,7.655 4.375,15.675 6.927,18.227c2.552,2.552 5.468,10.936 6.926,18.592c1.094,7.291 5.468,17.863 9.478,23.331c4.375,5.104 7.656,12.03 7.656,15.311c-0,7.655 20.779,40.465 25.518,40.465c4.739,-0 21.144,-26.248 24.06,-39.007c1.459,-5.468 5.469,-13.488 9.479,-17.863c3.645,-4.374 7.291,-13.853 8.02,-21.143c0.729,-7.291 4.01,-16.041 7.291,-19.686c2.916,-3.645 6.561,-12.395 8.02,-19.321c1.093,-6.926 3.645,-15.676 5.468,-19.686c1.823,-4.01 5.468,-20.414 8.02,-36.454l4.739,-29.164l21.508,20.05c28.07,26.247 61.973,48.849 68.9,46.298c6.926,-2.917 14.582,-39.736 10.936,-54.683c-1.823,-6.197 -2.552,-18.592 -1.823,-26.612c0.365,-8.749 -1.458,-20.05 -4.739,-26.612c-6.926,-13.123 -1.822,-15.31 10.208,-4.374c6.926,5.833 16.769,11.301 57.963,32.08c5.468,2.916 9.842,4.01 9.842,2.552c0,-1.458 2.917,-0 6.562,3.281c6.927,6.197 39.736,15.675 43.381,12.394c1.094,-1.458 0.365,-4.374 -1.458,-6.926c-8.749,-11.301 -22.966,-39.371 -20.05,-39.371c2.187,-0 27.341,44.475 28.07,49.943c0.365,1.458 71.816,19.321 76.92,19.321c9.478,-0 5.833,-22.967 -7.291,-44.839c-6.927,-11.301 -13.124,-23.696 -13.853,-26.977c-1.458,-8.749 -15.311,-14.582 -43.017,-18.592c-19.321,-2.916 -21.143,-3.645 -9.113,-4.01c8.02,0 20.414,1.094 26.976,3.281c6.927,1.823 13.124,2.916 14.218,2.187c3.281,-3.645 -15.676,-10.207 -30.622,-10.571c-8.75,-0.365 -16.04,-1.823 -16.04,-3.646c-0,-3.645 14.217,-3.281 28.434,1.094c10.572,2.916 11.666,2.552 8.02,-1.823c-2.552,-2.916 -9.113,-5.468 -14.946,-5.468c-5.468,-0 -11.301,-1.823 -12.395,-3.646c-2.552,-4.01 -12.759,4.375 -12.759,10.572c0,4.739 1.094,5.104 -16.405,-1.458c-8.02,-2.552 -14.217,-6.562 -13.852,-8.749c0.729,-2.552 -2.188,-2.552 -8.02,0.364c-8.385,3.646 -6.927,5.104 33.902,32.445c45.569,30.987 80.93,59.786 80.93,65.983c0,2.187 -6.926,-2.187 -15.311,-9.478c-18.227,-15.311 -111.551,-79.836 -121.03,-83.481c-5.103,-2.188 -4.739,-0.73 2.188,8.02c4.739,5.468 9.478,9.842 10.936,9.113c1.094,-0.729 1.823,1.458 1.094,4.739c-0.365,3.646 4.01,16.04 9.478,27.341c14.217,28.435 13.124,30.622 -2.187,5.104c-6.927,-11.665 -12.76,-22.602 -12.76,-24.425c0,-1.822 -1.822,-3.28 -3.645,-3.28c-2.187,-0 1.094,9.842 7.291,21.872c13.488,26.612 11.301,28.8 -2.916,3.646c-5.833,-9.843 -11.666,-17.134 -12.76,-15.676c-1.458,1.094 1.094,7.656 5.104,14.582c4.01,6.562 6.562,12.03 5.468,12.03c-4.374,0 -16.04,-22.966 -14.582,-27.341c1.094,-2.552 0,-5.833 -2.551,-7.655c-2.917,-1.458 -3.646,-1.094 -1.823,1.458c1.458,2.552 1.093,4.374 -1.094,4.374c-2.187,0 -6.562,-5.103 -9.478,-11.3c-3.281,-6.198 -6.927,-10.572 -8.02,-9.479c-0.729,1.094 2.552,9.479 8.02,18.957c5.468,9.113 9.478,17.498 8.384,18.227c-0.729,0.729 -6.561,-7.291 -13.123,-18.227c-11.301,-18.592 -12.395,-19.321 -24.425,-17.499c-12.03,1.823 -12.759,1.459 -21.508,-17.498c-5.104,-10.572 -9.478,-19.685 -9.478,-20.05c-0,-0.364 7.291,-1.823 16.04,-2.916c17.133,-2.552 61.244,4.374 58.327,9.113c-0.729,1.459 2.917,1.459 8.385,0.365c17.134,-4.739 60.515,-1.823 72.18,4.375c17.134,9.113 21.873,7.29 13.124,-4.74c-4.375,-5.832 -7.656,-14.582 -7.656,-18.956c0,-11.301 -19.321,-39.007 -34.996,-50.672c-14.582,-10.937 -16.04,-18.228 -2.552,-18.228c17.134,0 107.906,-29.528 126.863,-41.193c6.197,-3.646 18.591,-11.666 28.434,-17.499c9.478,-5.832 17.134,-12.759 17.134,-15.675c-0,-5.833 -55.047,-38.642 -65.254,-38.642c-3.281,-0 -9.114,-2.552 -12.759,-5.468c-4.01,-2.917 -9.843,-5.469 -12.759,-5.469c-3.281,-0.364 -12.395,-3.281 -20.415,-7.291c-8.02,-4.01 -17.863,-6.926 -22.237,-7.291c-4.01,0 -10.572,-2.187 -14.218,-5.103c-6.562,-4.739 -6.562,-5.104 1.458,-9.114c9.479,-5.104 22.238,-24.789 22.238,-34.267c-0,-4.01 -4.739,-8.749 -12.759,-12.03l-12.759,-5.104l8.02,-11.666c9.478,-13.123 19.321,-25.153 31.351,-38.277c4.374,-4.739 8.02,-10.936 8.02,-13.488c-0,-2.552 3.281,-7.656 7.291,-11.301c4.01,-3.646 7.291,-8.385 7.291,-10.937c-0,-2.187 4.739,-13.123 10.936,-24.06c10.936,-19.685 13.853,-33.903 7.655,-37.548c-1.458,-1.094 -12.759,0.729 -24.424,3.645c-12.03,3.281 -27.341,7.291 -34.268,8.749c-13.488,3.281 -16.404,4.01 -45.568,12.03c-26.977,7.656 -75.097,29.164 -94.782,42.653l-17.499,12.03l2.917,-14.218c6.562,-34.267 7.291,-102.438 1.093,-109.729c-2.187,-2.551 -6.561,-4.739 -9.842,-4.739c-9.843,0 -41.559,20.05 -63.067,39.736c-11.301,10.207 -21.144,18.592 -22.237,18.592c-1.094,-0 -3.281,-10.572 -4.375,-23.696c-1.458,-12.759 -5.104,-25.518 -7.656,-27.705c-2.916,-2.188 -5.103,-9.843 -5.103,-17.134c-0,-8.02 -3.281,-17.134 -9.114,-24.789c-5.104,-6.562 -9.114,-16.769 -9.114,-22.602c0,-5.833 -3.281,-13.488 -7.291,-17.134c-4.01,-3.645 -7.29,-9.478 -7.29,-13.124c-0,-7.655 -21.509,-43.381 -25.883,-43.381c-1.823,0 -7.656,6.927 -12.759,14.947Zm16.769,107.177c-0,69.264 -1.459,107.541 -3.646,107.541c-2.187,0 -3.645,-38.277 -3.645,-107.541c-0,-69.264 1.458,-107.542 3.645,-107.542c2.187,0 3.646,38.278 3.646,107.542Zm-18.592,-50.672c-3.646,4.739 -3.646,6.197 0.729,9.113c2.916,1.823 3.281,3.281 1.094,3.281c-5.833,0 -8.75,17.498 -3.646,20.05c2.187,0.729 0.365,0.729 -4.01,-0.364c-10.207,-2.552 -10.572,-0 -0.729,13.853c12.03,16.769 6.197,15.675 -6.926,-1.459c-12.395,-16.04 -15.676,-25.153 -6.198,-17.498c4.01,3.281 5.468,3.281 5.468,0.365c0,-2.552 2.188,-3.281 4.74,-2.188c2.187,1.459 1.093,-0.364 -2.917,-3.645c-6.926,-5.468 -6.926,-5.833 1.094,-8.02c5.103,-1.094 6.926,-3.281 4.739,-4.739c-5.833,-3.281 -1.094,-14.582 5.833,-14.582c4.739,-0 4.739,1.093 0.729,5.833Zm45.204,27.341c-8.02,13.488 -18.228,22.966 -14.947,13.852c1.458,-3.28 0.729,-8.02 -1.093,-10.207c-2.188,-2.916 -1.823,-2.916 0.729,-0.729c2.916,2.552 6.562,0.729 11.301,-5.468c9.842,-12.03 12.03,-10.937 4.01,2.552Zm8.384,5.103c-8.02,12.395 -7.291,15.311 1.823,6.927c8.02,-6.927 8.02,-6.927 4.01,0.364c-5.833,10.937 -34.632,41.559 -30.257,32.08c2.551,-4.739 2.551,-8.384 0.364,-9.113c-1.823,-0.729 2.187,-8.385 9.114,-17.134c6.926,-8.749 12.759,-17.498 12.759,-18.956c-0,-1.823 1.823,-3.281 4.01,-3.281c2.552,-0 1.823,3.645 -1.823,9.113Zm-66.347,19.686c7.291,9.843 13.123,18.956 13.123,20.415c0,5.103 -14.217,-9.843 -16.404,-16.77c-1.459,-4.01 -4.01,-6.926 -6.198,-6.926c-2.187,-0 -1.093,4.375 2.552,9.478c3.281,5.104 5.468,10.208 4.375,10.937c-0.729,0.729 -6.198,-5.469 -11.666,-13.853c-6.562,-9.843 -8.02,-13.488 -3.645,-10.208c5.833,5.104 6.197,4.74 4.01,-2.916c-4.01,-12.395 -0.365,-9.843 13.853,9.843Zm65.983,11.301c-9.114,12.03 -18.228,21.873 -20.415,21.873c-2.916,-0 -0.365,-3.646 23.696,-31.716c16.769,-19.685 14.946,-13.853 -3.281,9.843Zm-68.171,9.478c5.104,-2.916 15.311,11.666 12.759,18.227c-1.093,2.917 0,5.104 2.188,5.104c2.916,0 3.281,2.187 0.729,6.197c-4.01,8.02 -4.375,34.632 -0.365,32.081c1.823,-1.094 2.188,1.458 1.094,5.103c-1.094,3.646 0.729,10.937 3.645,15.311c5.833,9.478 2.917,14.947 -8.749,17.134c-5.103,0.729 -16.404,-15.676 -14.946,-22.237c0.364,-1.459 -2.552,-2.552 -6.562,-2.552c-4.01,-0 -7.291,-1.823 -7.291,-4.375c0,-2.187 -2.916,-7.291 -6.197,-10.936c-6.562,-7.291 -10.208,-44.475 -4.375,-40.83c1.823,1.094 3.281,0.365 3.281,-1.822c0,-1.823 -2.187,-4.375 -4.374,-5.469c-2.552,-1.458 -1.094,-1.458 3.28,-0.729c5.833,1.094 7.291,0 5.833,-4.739c-2.187,-5.103 -1.458,-5.103 5.104,0.365c8.02,7.291 15.675,8.749 15.675,2.916c0,-2.187 -1.822,-3.281 -3.645,-2.916c-2.187,0.729 -6.926,-4.739 -11.301,-11.666l-7.656,-12.759l9.114,10.572c5.104,5.833 10.572,9.478 12.759,8.02Zm64.525,10.572c-16.769,19.321 -23.695,24.06 -23.695,16.04c-0,-1.823 1.093,-2.916 2.916,-1.823c1.458,0.729 9.114,-6.562 17.134,-16.04c8.02,-9.843 16.04,-17.863 17.498,-18.227c1.823,-0 -4.739,9.114 -13.853,20.05Zm-176.805,-3.281c10.207,5.468 20.414,12.759 23.331,16.405c2.552,3.645 5.833,5.832 7.291,4.374c1.458,-1.458 3.281,1.094 4.739,5.468c1.093,4.375 4.374,8.02 6.926,8.02c2.917,0 8.02,5.833 11.301,12.76c6.562,13.852 12.395,17.133 9.478,5.468c-4.01,-15.676 10.572,-2.552 19.321,17.134c9.114,20.05 13.124,25.153 9.479,10.936c-1.823,-6.926 -1.459,-7.291 4.01,-3.281c11.665,9.843 18.956,43.017 11.301,53.589c-4.739,6.197 -5.469,5.832 -9.114,-4.74c-2.187,-6.561 -5.468,-11.665 -6.926,-11.665c-1.823,-0 -0.73,5.833 2.187,12.759c8.749,21.144 5.104,22.967 -4.375,2.187c-4.739,-10.936 -9.842,-18.956 -10.936,-17.498c-1.094,1.094 -0.365,5.104 1.823,9.114c6.561,12.03 18.592,44.475 16.769,44.475c-1.094,-0 -7.656,-12.395 -14.582,-27.342c-6.562,-14.946 -13.124,-27.341 -14.217,-27.341c-1.094,0 3.645,13.489 10.571,29.893c6.927,16.405 12.03,30.622 10.937,31.351c-1.094,1.094 -6.927,-9.842 -13.124,-24.06c-6.562,-14.582 -13.124,-26.247 -14.946,-26.247c-1.458,-0 2.916,11.301 9.842,25.518c6.927,13.853 12.76,27.341 12.76,29.893c-0.365,2.552 -6.198,-6.926 -13.124,-20.779c-22.237,-43.381 -38.642,-71.816 -40.465,-69.629c-1.093,0.729 7.291,18.592 18.228,39.371c10.936,20.78 21.143,41.559 22.601,46.662c1.094,5.104 -4.374,-3.28 -12.759,-18.227c-20.05,-36.455 -25.883,-41.558 -9.113,-7.655c15.675,31.715 14.946,38.277 -1.459,9.113c-6.561,-11.301 -12.394,-19.685 -13.488,-18.592c-0.729,0.729 2.552,8.75 7.656,17.499c14.217,25.153 10.572,25.518 -5.833,0.729c-8.02,-12.759 -16.405,-24.06 -18.957,-25.519c-2.187,-1.093 -0.729,2.552 3.646,8.385c4.01,5.833 10.207,16.405 13.488,23.331l5.833,12.759l-8.02,-10.572c-18.227,-22.966 -21.144,-25.153 -11.666,-8.02c5.833,9.843 8.385,16.769 5.833,15.311c-2.552,-1.458 -4.374,-0.729 -4.374,1.823c-0,2.552 -2.917,1.823 -7.291,-2.187c-8.75,-8.02 -9.843,-3.281 -1.094,6.197c3.281,3.646 4.01,6.562 2.187,6.562c-5.832,-0 -11.665,-8.749 -11.301,-16.405c0.365,-4.01 -4.01,-14.582 -9.842,-23.695c-6.198,-9.843 -8.75,-16.405 -5.833,-17.499c2.916,-1.093 2.916,-3.281 -0.365,-9.113c-2.552,-4.375 -4.739,-10.937 -5.468,-14.947c-1.094,-6.562 -0.729,-6.562 8.749,-0.729c8.02,5.104 7.656,4.01 -2.187,-4.374c-6.927,-5.833 -11.301,-12.395 -9.843,-14.582c1.094,-2.188 0.729,-4.739 -1.458,-6.198c-2.187,-1.458 -2.916,-4.01 -1.458,-5.832c1.458,-2.188 5.468,-1.094 10.207,3.281c4.01,3.645 10.207,8.02 13.124,9.842c2.916,1.459 -0.365,-2.916 -8.02,-9.842c-9.479,-8.75 -13.124,-14.582 -12.395,-21.144c0.729,-5.104 0,-10.937 -1.458,-12.759c-1.094,-2.188 -2.552,-7.291 -2.916,-12.03c-0.365,-7.656 0.364,-8.02 5.832,-3.646c5.468,4.01 5.468,3.646 0,-2.916c-7.291,-8.385 -8.749,-14.218 -2.916,-10.572c2.187,1.094 3.645,0.729 3.645,-1.458c0,-1.823 -2.187,-4.01 -4.374,-5.104c-2.552,-0.729 -3.646,-2.916 -2.187,-4.375c1.458,-1.458 5.832,-0.729 9.113,2.188c5.468,4.01 5.468,3.645 -0.364,-3.281c-9.114,-10.207 -6.198,-10.207 16.04,1.458Zm302.574,-4.01c-4.01,4.739 -3.645,5.104 0.729,3.645c8.749,-3.645 6.562,9.843 -4.01,21.873c-5.833,6.562 -6.562,8.385 -1.823,4.375c12.395,-10.207 14.582,-6.927 2.917,5.468l-10.572,11.666l10.207,-6.198c12.395,-8.02 13.124,-1.093 0.729,6.927c-5.103,3.281 -9.113,7.655 -9.113,9.842c-0,1.823 2.916,1.094 6.561,-2.187c8.021,-7.291 14.218,-8.384 9.114,-1.823c-1.823,2.552 -2.916,9.114 -2.552,14.947c0.729,8.02 -1.458,11.665 -13.488,19.685c-17.863,11.666 -18.592,15.311 -1.094,5.104c15.311,-9.114 18.592,-9.478 12.031,-1.458c-2.917,3.281 -10.572,8.02 -17.499,10.936c-6.562,2.917 -11.301,5.833 -10.207,6.927c1.094,1.093 7.655,-0.729 14.946,-3.646c13.124,-5.468 17.499,-2.916 8.385,4.739c-2.916,2.188 -4.375,8.385 -3.281,14.218c0.729,6.562 -0.729,12.03 -4.375,14.946c-3.28,2.917 -5.832,7.656 -5.832,10.937c-0,6.561 -24.06,32.08 -27.341,29.163c-0.729,-1.093 3.645,-8.384 9.842,-16.404c9.114,-10.937 9.479,-12.395 2.917,-6.927c-4.739,4.01 -11.666,10.572 -15.676,14.582c-5.833,6.562 -5.833,5.468 1.094,-9.113c5.833,-13.124 6.197,-14.582 1.094,-7.291c-18.228,25.518 -22.238,26.612 -9.843,2.551c15.311,-29.163 13.853,-32.809 -1.823,-4.739c-6.197,10.572 -13.853,21.509 -16.769,24.06c-3.281,2.552 1.823,-8.384 10.572,-24.06c12.03,-21.143 18.227,-28.434 22.966,-27.705c5.468,0.729 5.468,0.364 1.094,-2.552c-6.927,-4.739 -8.02,-4.01 -25.154,24.06c-8.02,13.853 -16.405,26.977 -17.863,29.528c-1.822,2.552 -5.833,3.646 -9.113,2.188c-5.104,-1.823 -4.74,-4.739 4.739,-22.967c5.832,-11.665 16.404,-30.622 23.331,-42.652c7.291,-11.665 13.123,-24.06 13.123,-26.976c0,-6.198 -23.331,32.809 -42.652,70.722c-16.04,31.715 -19.685,29.164 -4.739,-3.646c14.218,-31.351 11.666,-34.996 -3.281,-4.374c-6.562,13.123 -10.207,18.227 -9.113,12.03c1.458,-6.197 8.749,-23.696 16.404,-39.371c7.656,-15.311 12.395,-28.07 10.937,-28.07c-1.458,-0 -9.843,14.581 -18.228,32.809c-8.384,17.863 -16.04,32.809 -17.133,32.809c-2.552,0 1.458,-13.488 7.655,-26.612c2.916,-5.468 3.646,-9.843 1.823,-9.843c-1.823,0 -5.104,5.833 -7.291,13.124c-5.468,16.405 -9.114,13.853 -4.375,-3.281c2.917,-10.572 2.552,-12.759 -1.822,-12.03c-2.917,0.365 -6.927,3.281 -8.75,6.197c-6.561,10.572 -3.28,-11.665 4.375,-29.892c8.02,-18.228 14.217,-22.967 14.217,-11.666c0.365,3.645 4.739,-1.823 9.843,-11.666c5.104,-10.207 11.301,-19.321 13.488,-20.779c6.562,-4.374 10.572,-3.281 8.02,2.552c-3.645,9.478 1.094,5.833 8.75,-6.562c4.01,-6.197 7.291,-9.113 7.291,-6.197c0.364,2.916 2.551,-0 5.468,-6.562c2.916,-6.562 6.926,-11.301 8.384,-10.207c1.823,1.093 7.291,-2.188 12.03,-7.291c14.947,-16.04 51.766,-32.445 39.736,-17.863Zm-100.615,6.197c-1.458,2.552 -5.104,7.656 -8.02,11.301c-7.291,8.02 -3.281,12.03 4.375,4.375c3.28,-3.281 5.832,-4.375 5.832,-2.187c0,1.822 -1.822,4.739 -4.01,6.197c-2.552,1.458 -2.916,3.281 0,6.197c2.552,2.552 2.552,5.833 0,10.572c-1.822,3.646 -2.552,8.749 -1.093,11.301c1.458,2.187 1.458,3.281 -0,1.823c-3.281,-2.552 -25.154,19.321 -34.632,34.267c-5.833,9.114 -6.927,9.478 -13.489,5.104c-6.562,-5.104 -6.562,-5.833 -0.364,-16.04c3.281,-6.198 6.197,-14.582 6.197,-18.592c0,-4.375 1.094,-7.656 2.916,-7.656c1.459,0 4.74,-3.281 7.291,-7.655c4.375,-6.927 4.01,-6.927 -2.916,-3.281c-4.375,2.187 -8.749,3.281 -10.207,2.187c-1.094,-1.093 -0,-2.187 2.187,-2.187c2.552,-0 4.375,-2.187 4.375,-4.739c0.364,-6.562 13.123,-20.779 18.956,-20.779c2.552,-0 0.729,3.645 -4.739,8.384l-9.114,8.385l14.582,-0c8.385,0.364 11.301,-0.365 6.927,-1.094c-4.74,-1.093 -8.385,-2.187 -8.385,-2.916c-0,-1.823 22.966,-27.341 24.425,-27.341c0.729,-0 0.364,2.187 -1.094,4.374Zm304.762,51.401c-9.114,8.75 -17.134,15.676 -18.228,15.676c-5.103,-0.729 -75.826,53.953 -74.003,57.234c1.094,2.187 0.365,2.552 -1.823,1.094c-2.187,-1.094 -19.685,8.384 -39.006,21.508c-19.686,13.488 -36.455,22.966 -37.913,21.508c-1.094,-1.458 -0.365,-3.281 2.187,-4.01c2.552,-0.729 10.572,-6.562 18.228,-12.759c7.655,-5.833 29.163,-21.508 47.755,-34.632c19.321,-13.488 32.445,-25.154 31.351,-27.341c-1.458,-2.552 -0.729,-2.916 1.823,-1.458c2.187,1.458 19.686,-8.749 41.558,-24.789c20.415,-15.311 39.007,-27.706 40.83,-27.706c2.187,-0 -3.646,7.291 -12.759,15.675Zm-41.559,0.365c0,4.739 -1.458,8.02 -2.916,7.291c-1.458,-1.094 -4.375,1.458 -6.562,4.739c-3.281,5.468 -3.646,5.104 -1.823,-2.552c1.458,-6.562 -0.364,-5.103 -5.468,4.739c-4.375,8.02 -8.749,13.489 -9.478,12.395c-2.917,-2.916 12.03,-26.247 16.404,-25.154c2.188,0.365 5.104,-1.823 6.198,-4.739c3.281,-8.02 4.374,-6.926 3.645,3.281Zm-619.001,29.893c-1.094,1.094 -5.833,-4.01 -10.208,-11.301c-6.561,-10.572 -9.113,-12.03 -13.123,-8.749c-3.646,2.916 -5.104,2.916 -5.104,-0c0,-2.187 1.823,-4.01 3.646,-4.01c2.187,-0 3.645,-2.917 3.645,-6.562c-0,-3.646 4.739,1.094 11.301,11.301c6.562,9.478 10.572,18.227 9.843,19.321Zm589.108,-9.843c-5.468,12.395 -10.572,21.508 -11.301,20.779c-1.093,-0.729 2.917,-11.665 8.385,-23.695c5.468,-12.395 10.572,-21.509 11.301,-20.779c1.094,0.729 -2.916,11.665 -8.385,23.695Zm-577.078,8.749c4.01,8.02 6.926,14.947 6.197,15.676c-0.729,0.729 -6.926,-9.114 -13.488,-21.508c-6.562,-12.395 -9.114,-19.321 -5.833,-15.311c3.281,4.01 9.478,13.488 13.124,21.143Zm12.759,3.646c5.104,9.843 8.749,19.321 8.02,21.143c-0.729,1.823 -7.291,-9.113 -14.946,-24.789c-14.218,-29.893 -8.75,-26.612 6.926,3.646Zm548.644,-2.188c-5.833,11.666 -10.937,18.957 -11.301,16.77c-0,-6.562 19.685,-45.933 21.144,-41.559c0.729,1.823 -3.646,13.124 -9.843,24.789Zm-535.885,6.198c6.197,11.665 10.207,21.873 9.114,22.966c-1.823,1.823 -27.706,-47.391 -27.706,-52.495c0,-4.374 6.198,5.469 18.592,29.529Zm523.126,-3.281c-12.03,27.705 -20.051,40.1 -14.947,23.695c3.281,-10.936 23.331,-51.036 25.154,-51.036c1.094,-0 -3.646,12.394 -10.207,27.341Zm-507.086,12.759c19.321,41.558 14.218,39.736 -6.562,-2.552c-9.478,-18.956 -14.946,-33.174 -12.394,-30.622c2.916,2.187 11.301,17.134 18.956,33.174Zm494.691,-7.291c-7.291,15.676 -14.582,28.799 -16.04,29.164c-2.916,-0 17.134,-46.298 23.331,-53.589c7.655,-9.113 6.197,-4.374 -7.291,24.425Zm-13.488,2.916c-6.927,14.582 -12.759,28.071 -12.759,29.893c-0,6.198 -6.562,7.291 -8.75,1.094c-1.458,-3.646 -1.458,-5.104 0,-3.646c1.459,1.459 9.114,-10.936 16.77,-26.976c7.655,-16.405 14.582,-29.164 15.675,-28.435c0.729,1.094 -4.01,13.489 -10.936,28.07Zm-468.079,9.479c6.197,11.665 10.207,21.873 9.114,22.966c-0.729,1.094 -8.385,-12.03 -16.77,-28.435c-8.02,-16.769 -12.03,-27.341 -9.113,-23.331c3.281,4.01 10.936,16.77 16.769,28.8Zm457.871,-13.489c-4.374,9.843 -9.113,18.228 -10.207,19.321c-1.458,1.094 -5.104,8.385 -8.385,16.041c-3.28,8.02 -6.926,13.488 -7.655,12.394c-3.645,-3.645 27.706,-64.889 33.174,-64.889c0.729,-0 -2.187,7.655 -6.927,17.133Zm-20.779,16.405c-14.217,25.883 -17.863,39.371 -11.301,39.371c1.823,0 2.917,2.187 2.552,5.104c-1.458,9.843 -12.03,15.675 -30.622,17.498c-10.572,1.094 -18.956,1.823 -18.956,1.458c5.103,-16.04 14.582,-39.371 14.582,-36.819c-0,1.823 2.551,-1.458 5.468,-7.291c2.552,-6.197 8.384,-14.946 12.759,-20.05l7.655,-9.114l-6.561,13.489c-3.281,7.655 -7.291,13.852 -9.114,13.852c-1.458,0 -2.917,3.281 -2.917,7.656c0,10.936 5.104,5.833 16.405,-16.769c10.937,-21.144 22.237,-34.997 17.863,-21.509c-1.458,4.739 0.729,3.646 5.833,-3.281c12.759,-15.675 11.665,-11.665 -3.646,16.405Zm-204.875,-7.291c1.822,2.552 4.739,8.749 6.197,13.488c1.458,5.104 5.833,12.395 9.478,16.405c4.01,4.01 6.927,12.395 6.927,19.321c-0,6.926 1.458,11.666 3.28,10.572c5.833,-3.646 8.75,30.622 3.281,43.016l-4.739,11.301l-2.187,-12.759c-2.187,-11.301 -2.552,-10.572 -2.916,6.562c-0,10.937 -1.823,18.592 -3.646,17.134c-1.823,-1.094 -2.916,-11.301 -2.187,-22.967l1.458,-20.779l-3.281,21.508c-4.374,27.342 -7.291,29.893 -8.02,7.291l-0.364,-17.862l-2.552,18.227c-2.188,15.311 -2.552,12.395 -3.281,-18.227c-0.729,-22.238 -1.823,-33.539 -3.646,-29.164c-1.822,4.01 -2.187,21.144 -1.458,37.913c1.094,20.779 0.365,29.528 -2.187,27.705c-2.187,-1.093 -4.375,-9.113 -4.739,-17.498c-0.365,-14.582 -0.729,-14.217 -2.917,4.739l-2.552,20.05l-1.093,-16.404c-0.365,-9.114 -2.187,-21.509 -4.01,-27.341c-1.823,-7.656 -2.552,-3.646 -1.094,12.759c1.094,16.404 0.365,21.508 -1.823,16.404c-1.822,-4.01 -4.01,-13.123 -4.374,-20.05l-0.729,-12.759l-2.188,12.759l-2.551,12.759l-4.375,-17.498c-4.739,-17.498 -3.281,-26.247 3.281,-22.237c2.552,1.458 2.916,-2.552 1.458,-10.937c-1.823,-8.749 -1.093,-13.123 1.458,-13.123c2.188,-0 4.01,-4.01 4.01,-9.114c0,-6.562 1.459,-8.385 5.469,-6.926c4.01,1.822 5.468,-0.365 5.468,-7.291c-0,-10.937 9.478,-31.351 14.217,-31.351c1.823,-0 4.739,2.187 6.927,4.374Zm-314.24,2.187c-1.823,2.917 -30.987,2.188 -34.268,-1.093c-1.093,-1.094 6.562,-1.823 17.134,-1.823c10.572,-0 18.227,1.458 17.134,2.916Zm650.352,11.666c-12.03,4.01 -29.164,4.374 -29.164,0.729c0,-1.823 8.75,-3.281 19.321,-3.645c14.582,-0 16.77,0.364 9.843,2.916Zm-0.364,9.478c0.729,0.729 -8.385,1.458 -20.779,1.458c-12.031,0 -22.967,-1.458 -24.061,-3.281c-2.187,-2.916 41.194,-1.093 44.84,1.823Zm-618.273,5.104c-9.842,4.01 -54.682,9.113 -51.765,5.833c2.187,-2.188 38.277,-8.385 52.494,-8.75c6.562,-0.364 6.562,0 -0.729,2.917Zm596.764,4.01c9.479,2.187 6.562,2.552 -10.936,1.093c-13.124,-1.093 -25.154,-3.645 -27.341,-5.468c-3.646,-4.01 12.395,-2.187 38.277,4.375Zm-601.503,6.926c-2.916,1.823 -12.759,3.281 -21.873,2.917l-16.404,-0.365l14.582,-2.552c8.02,-1.458 17.863,-2.916 21.873,-2.916c5.832,-0.365 6.197,-0 1.822,2.916Zm593.119,0c6.926,0 11.665,1.458 10.572,2.917c-2.188,3.645 -41.559,-0.73 -45.204,-5.104c-1.458,-1.458 2.916,-1.458 9.843,-0c6.561,1.094 17.862,2.187 24.789,2.187Zm-0.729,12.395c9.478,2.552 -29.893,-1.094 -40.83,-4.01c-4.739,-1.094 -8.384,-3.281 -8.384,-4.739c-0,-2.188 24.789,2.187 49.214,8.749Zm-23.696,4.374c9.843,1.459 18.228,4.01 18.228,5.833c-0,1.823 -2.917,2.552 -6.198,1.458c-3.645,-1.093 -14.217,-2.916 -23.695,-4.374c-9.843,-1.094 -17.499,-4.01 -17.499,-5.833c0,-2.187 2.552,-2.916 5.469,-1.458c2.916,1.093 13.488,2.916 23.695,4.374Zm-14.582,8.385l12.759,4.01l-12.759,-1.458c-6.926,-0.729 -16.404,-0 -20.779,1.823c-5.468,1.822 -8.385,1.458 -9.843,-2.188c-2.187,-6.197 9.114,-13.488 14.218,-9.113c1.822,1.458 9.478,4.739 16.404,6.926Zm-522.396,25.883c1.094,-0 -0,-2.552 -2.552,-5.468c-6.926,-8.385 -1.094,-11.301 7.291,-3.646c6.562,6.197 7.291,6.197 5.104,0.729c-4.739,-13.123 21.873,-1.822 34.632,14.218c4.374,5.468 7.655,8.02 7.655,6.197c0,-1.823 -3.281,-6.562 -7.291,-10.207c-16.404,-14.947 -2.187,-21.144 16.405,-7.291c6.926,5.468 12.759,8.384 12.759,6.197c-0,-2.187 -1.823,-5.104 -3.645,-6.197c-6.562,-4.01 -0,-9.114 6.561,-5.469c3.281,1.823 16.405,7.656 29.164,13.124c12.395,5.468 22.602,11.301 22.602,13.124c0,1.823 -3.281,1.458 -6.926,-0.729c-4.01,-1.823 -9.479,-3.646 -12.03,-3.646c-2.552,0.365 1.458,3.646 9.113,7.656c12.395,6.562 19.321,13.853 9.114,9.478c-2.552,-1.094 -10.936,-4.739 -18.592,-8.02c-20.415,-8.385 -13.853,-1.094 8.02,8.749c12.759,6.197 17.863,10.572 17.498,15.311c-0.729,8.385 -0.364,8.385 -12.759,1.823c-5.468,-2.552 -13.853,-5.833 -18.956,-7.291c-5.104,-1.094 0.729,2.916 12.759,8.749c26.612,13.124 18.227,14.582 -10.936,1.823c-11.666,-5.104 -22.602,-8.749 -24.425,-8.385c-1.823,0.729 8.749,6.562 23.331,12.759c14.582,6.562 24.06,11.666 20.779,12.03c-2.916,0 -19.321,-5.832 -35.726,-13.123c-16.404,-6.927 -31.715,-12.395 -33.902,-11.666c-2.188,0.729 11.301,7.656 29.528,15.311c33.903,14.217 43.746,21.508 14.946,11.301c-18.956,-6.562 -24.06,-4.374 -6.926,3.281c9.114,3.646 10.207,5.468 5.104,5.468c-4.01,0 -14.582,-2.916 -23.331,-6.926c-8.75,-4.01 -16.77,-6.562 -17.499,-5.833c-1.093,1.094 6.562,5.468 16.769,9.843c10.572,4.374 18.228,8.749 17.134,9.478c-0.729,0.729 -7.655,-1.094 -14.946,-4.374c-7.656,-2.917 -14.582,-4.74 -15.676,-3.646c-1.093,0.729 2.552,3.281 8.02,5.104c12.395,5.103 12.395,9.113 -0.364,5.832c-9.843,-2.187 -9.843,-2.187 -2.917,3.646c6.927,5.468 6.562,5.833 -5.468,3.645c-24.789,-4.739 -40.1,-9.478 -40.1,-12.759c-0,-2.187 2.187,-3.645 4.739,-4.01c2.187,0 -2.187,-2.187 -10.207,-5.103l-14.582,-4.74l12.759,-0.729c12.759,-0.364 12.759,-0.364 -5.468,-6.561c-21.144,-6.927 -62.338,-37.184 -65.619,-48.485c-4.739,-14.947 13.853,-23.331 32.08,-13.853c6.562,3.281 7.291,3.281 3.646,-0.729c-9.114,-9.114 -4.739,-11.301 8.384,-3.646c6.927,4.375 13.853,7.656 14.947,7.656Zm461.881,-6.927c-6.926,8.02 -6.926,8.02 1.823,3.281c10.937,-5.468 41.559,-8.384 38.642,-3.281c-2.916,4.375 4.375,4.375 13.124,-0.364c4.739,-2.552 6.926,-2.552 6.926,-0.365c0,2.188 4.375,2.917 10.937,1.823c14.217,-2.916 32.809,4.739 32.809,13.488c-0,11.301 -20.779,31.351 -35.726,34.268c-12.394,2.552 -12.759,2.916 -4.374,5.468c8.749,2.187 8.384,2.552 -4.375,6.926c-7.655,2.552 -14.946,6.562 -16.404,9.114c-1.823,2.552 -8.75,6.197 -15.676,8.385c-10.207,3.281 -10.936,4.01 -4.01,4.374c14.582,0.729 2.552,10.208 -17.134,13.124c-13.123,2.187 -15.311,3.281 -9.843,5.468c6.198,2.187 5.469,3.281 -6.926,8.749c-15.675,6.562 -21.508,7.656 -13.124,2.188c4.739,-2.917 4.375,-3.646 -1.458,-3.646c-7.291,0 -7.291,0 0,-5.468c6.562,-5.468 6.197,-5.833 -5.833,-3.646c-12.03,2.188 -12.394,1.823 -5.832,-3.281c3.645,-3.28 8.384,-4.739 9.842,-3.645c1.823,1.094 3.281,0 3.281,-2.187c0,-2.552 -2.551,-3.281 -5.832,-2.188c-13.124,5.104 -23.331,6.562 -23.331,3.281c-0,-2.187 6.926,-5.832 15.675,-8.384c8.385,-2.552 13.124,-5.468 10.572,-6.198c-2.552,-1.093 -11.666,0.73 -20.779,4.011c-9.114,2.916 -16.405,4.01 -16.405,2.187c0,-1.458 5.104,-4.739 10.937,-6.927c14.946,-5.103 13.852,-8.02 -0.73,-3.281c-23.331,6.927 -26.611,7.656 -23.695,4.375c1.823,-1.823 18.227,-8.385 36.455,-14.946c18.592,-6.198 30.986,-11.666 27.705,-11.666c-2.916,-0.364 -20.05,4.375 -37.913,10.572c-31.715,10.572 -45.568,13.853 -34.632,7.655c2.917,-1.822 16.405,-6.926 30.258,-11.301c13.488,-4.739 23.695,-9.113 22.602,-10.207c-0.729,-1.093 -14.947,2.552 -30.987,8.385c-35.361,11.665 -41.558,10.572 -10.207,-1.823c12.03,-4.739 20.414,-9.478 18.592,-9.843c-1.823,-0.729 -11.301,2.188 -21.144,6.198c-9.478,4.01 -18.227,6.926 -18.956,6.197c-0.73,-0.729 9.478,-6.197 22.601,-12.03c12.76,-5.833 23.696,-11.666 23.696,-13.124c0,-2.552 -18.956,4.739 -37.184,13.853c-5.833,2.916 -10.207,4.01 -10.207,2.187c-0,-1.823 8.384,-6.926 18.592,-11.665c10.207,-5.104 16.769,-9.479 14.946,-10.208c-2.187,-0.729 -9.113,1.458 -15.311,4.739c-16.769,8.75 -17.863,3.646 -1.093,-5.468c12.759,-7.291 12.03,-7.291 -5.104,-1.458c-5.468,1.823 -5.104,1.094 0.729,-4.01c10.936,-9.114 31.351,-18.956 45.568,-21.873c11.301,-2.552 12.031,-2.187 7.656,3.281c-7.291,8.749 2.552,7.656 14.217,-1.458c5.104,-4.01 12.395,-7.291 16.04,-7.291c6.927,-0 6.927,-0 0,7.655Zm-296.012,6.927c9.478,5.104 13.853,5.833 14.946,2.552c2.188,-5.833 28.071,14.946 36.455,29.163c3.281,6.198 5.468,13.853 4.01,17.134c-2.187,5.833 -8.749,4.739 -8.749,-1.823c-0,-2.187 1.823,-2.551 4.01,-1.093c2.916,1.458 2.916,-0 0,-5.468c-5.104,-9.114 -8.02,-10.208 -5.468,-1.459c1.823,5.469 1.093,5.469 -3.646,-0.364c-7.291,-9.114 -7.655,-2.917 -0.364,6.562c9.113,12.03 5.833,15.675 -3.646,4.01c-5.103,-6.198 -9.113,-9.114 -9.113,-6.927c-0,2.188 2.551,6.198 5.468,8.749c2.916,2.552 5.468,6.562 5.468,8.75c0,2.187 -7.291,-4.01 -16.405,-13.489c-20.05,-21.872 -21.872,-18.956 -1.822,3.646c14.217,16.404 14.217,16.404 7.291,24.06c-6.562,6.926 -7.656,6.926 -13.853,1.458c-3.646,-3.645 -7.656,-5.468 -8.385,-4.739c-0.729,1.094 -5.468,-1.458 -10.572,-5.104c-5.832,-4.374 -7.291,-7.291 -4.01,-7.291c3.646,0 2.552,-2.551 -3.281,-8.02c-5.468,-5.103 -6.926,-8.384 -4.01,-9.478c3.281,-1.093 3.281,-2.916 -0.364,-7.655c-6.927,-8.02 -14.947,-32.445 -12.03,-36.82c3.281,-5.468 13.488,-4.374 28.07,3.646Zm198.314,-2.552c2.552,6.926 -4.739,24.425 -13.853,34.267c-6.926,7.291 -6.926,8.385 -1.458,8.385c8.02,0 2.916,9.843 -13.853,26.612c-14.217,13.488 -33.903,18.956 -22.237,6.197c3.645,-4.01 7.655,-6.197 9.113,-5.468c1.458,0.729 5.833,-1.823 9.478,-6.562l6.927,-8.02l-8.02,6.927c-9.843,8.384 -10.937,4.01 -2.187,-6.562c3.645,-4.375 -0.73,-1.094 -9.479,6.926c-8.749,8.02 -14.217,11.301 -12.03,7.291c2.188,-4.01 8.02,-11.301 13.124,-16.04c5.104,-5.104 9.478,-10.572 9.478,-12.759c0,-2.187 -6.562,3.645 -14.582,13.124c-14.217,16.404 -15.311,16.769 -21.873,10.936c-8.749,-7.291 -9.113,-12.759 -1.822,-18.956c2.916,-2.552 5.468,-6.198 5.468,-8.385c-0,-2.187 -2.552,-0.729 -5.468,3.645c-3.281,4.74 -8.02,7.291 -10.937,6.198c-6.197,-2.552 -0.729,-11.301 20.05,-33.903c8.75,-9.478 12.395,-11.301 14.582,-7.656c2.188,3.646 4.375,4.01 8.02,1.094c12.759,-10.207 38.642,-14.582 41.559,-7.291Zm-111.552,64.525c0,9.843 -6.926,12.759 -13.853,6.197c-4.374,-4.739 -4.739,-6.926 -1.093,-11.301c5.833,-6.926 14.946,-3.645 14.946,5.104Zm-293.46,2.552c-3.281,-8.02 7.291,-12.395 14.581,-6.198c2.917,2.552 5.469,3.646 5.469,2.188c-0,-1.094 5.103,2.916 10.936,9.478c6.197,6.197 10.937,9.843 10.937,8.385c-0,-1.459 3.28,1.458 7.655,6.926c4.01,5.104 8.749,8.749 10.572,7.655c1.458,-1.093 3.645,0.365 4.739,3.281c2.552,6.198 20.05,15.311 36.09,18.957l12.03,2.552l-15.675,6.561c-8.749,4.011 -17.499,6.198 -18.957,5.104c-1.458,-1.093 -4.01,2.187 -5.103,7.291c-1.459,6.197 -6.927,10.937 -16.77,14.947c-8.02,3.28 -14.581,7.655 -14.581,9.842c-0,2.188 -1.094,2.917 -2.188,1.459c-1.093,-1.094 -8.749,1.822 -16.769,6.926c-19.321,12.395 -21.873,9.114 -2.916,-3.646c22.602,-14.946 17.133,-14.946 -9.114,-0.364c-29.893,16.769 -30.987,14.217 -1.823,-3.646c23.696,-14.581 23.331,-13.852 18.228,-23.695c-2.552,-4.739 -2.188,-7.656 1.458,-10.937c4.374,-3.281 4.739,-2.551 3.281,3.646c-1.458,5.833 -0.729,6.926 4.01,5.104c3.281,-1.094 4.739,-4.01 3.281,-6.198c-1.094,-1.822 -0.365,-2.552 1.458,-1.458c2.187,1.458 9.478,0 16.04,-2.916c11.301,-4.739 2.187,-5.104 -95.876,-5.469c-69.993,0 -108.635,-1.458 -108.635,-3.645c-0,-2.187 6.197,-3.645 13.853,-3.645c59.421,-0.73 146.183,0.364 171.337,2.187c22.602,1.823 29.893,1.458 29.893,-2.187c-0,-2.552 -2.552,-3.646 -5.833,-2.188c-2.916,1.094 -4.374,0.729 -3.281,-1.458c1.094,-2.187 0.365,-3.645 -1.458,-3.645c-2.187,-0 -4.01,2.187 -4.01,4.374c-0,3.646 -1.094,3.646 -3.281,0c-1.823,-2.916 -8.749,-5.468 -15.311,-6.197c-6.926,-0.365 -18.592,-1.823 -26.612,-3.281c-9.843,-2.187 -13.124,-1.458 -11.301,1.458c2.552,4.01 -29.893,-14.582 -45.204,-26.247c-15.311,-11.666 -2.552,-6.927 17.134,6.562c25.154,16.769 29.164,13.488 4.739,-4.01c-10.207,-7.291 -18.592,-14.218 -18.592,-15.311c0,-2.188 14.582,6.926 31.716,19.321c6.197,4.739 13.123,8.749 14.946,8.749c6.198,-0 0,-16.04 -9.113,-22.967c-4.74,-3.645 -8.385,-8.384 -8.385,-10.572c-0,-2.552 4.01,-0.364 9.478,4.739c6.562,6.198 8.385,6.927 6.927,2.188Zm314.604,0.729c1.094,6.926 -0,8.02 -4.739,6.197c-3.281,-1.094 -6.927,-2.187 -7.656,-2.187c-0.729,-0 -1.458,-3.281 -1.458,-7.656c0,-10.572 12.395,-7.655 13.853,3.646Zm296.012,-7.656c0,3.281 -22.602,17.499 -26.247,16.405c-1.094,-0.365 -3.281,1.458 -4.375,4.375c-3.28,8.749 3.646,6.197 23.331,-7.656c9.843,-7.291 18.228,-11.301 18.228,-9.114c-0,2.188 -4.739,6.198 -10.207,9.114c-10.208,5.104 -22.238,16.769 -17.499,16.769c1.458,0 10.937,-5.833 21.144,-12.759c10.572,-6.926 19.686,-11.665 20.779,-10.207c1.458,1.093 0.365,2.916 -2.187,3.645c-2.187,0.729 -13.488,8.02 -24.789,16.04c-11.666,8.385 -20.05,12.03 -18.957,9.114c1.458,-3.281 0.729,-5.833 -1.093,-5.833c-1.823,0 -4.375,3.281 -5.469,7.656c-2.187,5.832 -4.739,7.291 -13.123,6.197c-5.833,-1.094 -10.572,-0.365 -10.572,1.458c-0,1.458 -1.823,2.917 -4.01,2.917c-1.823,-0 -2.552,-2.188 -1.094,-4.74c2.187,-3.645 1.458,-3.645 -2.552,0c-2.552,2.552 -7.655,4.74 -11.301,4.74c-3.645,-0 -6.562,1.458 -6.562,3.645c0,1.823 -2.187,2.552 -4.739,1.458c-2.551,-0.729 -7.655,0.729 -11.665,3.646c-6.562,4.739 -6.197,5.103 5.104,10.936c7.655,4.01 15.675,5.468 22.601,4.01c8.75,-1.823 10.572,-1.093 10.572,4.375c0,5.468 -0.729,5.832 -3.645,1.093c-2.917,-4.374 -3.646,-4.374 -3.646,1.823c0.365,5.104 8.02,11.666 27.706,23.331c14.946,8.749 26.612,16.405 25.883,17.134c-0.729,0.729 -14.947,-6.197 -31.351,-15.311c-24.789,-14.217 -30.622,-16.04 -34.997,-12.395c-4.739,4.01 -7.291,3.281 -15.675,-4.739c-5.469,-5.104 -16.405,-12.394 -24.425,-15.675l-14.582,-6.198l9.114,-4.01c8.749,-4.01 29.164,-16.404 32.809,-20.414c1.094,-1.094 4.375,-1.823 7.291,-1.823c3.281,-0 5.104,-2.552 4.375,-6.927c-0.73,-4.01 0.364,-5.468 2.551,-4.01c2.188,1.094 5.104,-0.364 6.198,-3.28c1.093,-3.281 3.645,-4.74 5.468,-3.646c1.823,1.094 3.281,-1.094 3.645,-4.739c0,-3.646 1.094,-4.739 2.188,-2.187c1.093,3.281 5.103,1.822 13.488,-4.375c6.562,-5.104 14.946,-9.114 18.956,-9.114c6.927,0.365 6.927,0.365 0,5.469c-10.571,8.02 -2.187,6.561 10.572,-1.823c12.395,-8.385 12.759,-8.385 12.759,-4.375Zm-613.168,22.602c1.093,2.552 -5.833,-0.729 -15.311,-7.291c-9.114,-6.562 -16.769,-12.759 -16.769,-13.852c-0,-3.281 30.986,17.133 32.08,21.143Zm278.878,-9.113c6.927,9.842 5.469,16.404 -3.28,16.404c-4.74,0 -12.395,-13.488 -12.395,-22.237c-0,-6.562 9.114,-2.917 15.675,5.833Zm367.1,-0c-0,1.093 -6.927,6.561 -15.676,12.03c-8.749,5.468 -15.311,12.03 -14.946,14.582c0.364,2.551 -0,2.916 -1.094,0.729c-1.094,-2.917 -3.281,-2.552 -6.926,0.364c-2.917,2.187 -5.104,2.552 -5.104,0.729c-0,-1.822 9.478,-9.113 21.144,-16.769c21.873,-14.217 22.602,-14.582 22.602,-11.665Zm-687.537,14.581c9.843,6.927 16.77,12.76 14.947,12.76c-3.281,-0 -38.278,-21.873 -38.278,-24.06c0,-3.646 6.927,-0.365 23.331,11.3Zm255.548,-4.739c10.936,4.739 20.05,9.114 20.05,10.208c-0.364,7.655 -6.926,10.207 -21.144,7.291c-8.384,-1.459 -15.311,-1.094 -15.311,0.364c0,1.823 5.469,3.281 12.03,3.281c6.198,0 14.218,1.823 17.134,3.646c4.375,2.916 4.375,3.645 -1.823,3.281c-4.01,-0 -14.217,-1.459 -22.601,-2.917c-8.75,-1.823 -15.676,-1.823 -15.676,-0.364c-0,1.458 9.114,4.01 20.05,5.468c10.937,1.093 21.144,4.01 22.237,6.197c1.459,2.187 -0.364,2.916 -4.374,1.823c-17.134,-4.739 -36.09,-6.562 -30.622,-2.917c2.916,2.188 10.572,4.01 16.405,4.01c6.197,0 13.488,1.823 16.404,3.646c3.646,2.552 0,2.916 -12.759,2.187c-9.843,-0.729 -14.217,-0.729 -9.114,0.365c5.104,0.729 10.937,3.281 12.76,5.468c2.551,2.552 -0.365,3.281 -9.114,1.458c-11.666,-2.187 -12.03,-1.823 -5.468,3.281c6.926,5.468 6.561,5.468 -5.469,3.646c-6.926,-1.459 -15.675,-2.552 -19.685,-3.281c-3.646,-0.365 -8.749,-3.646 -11.301,-6.927c-2.552,-3.281 -8.385,-6.197 -13.488,-6.197c-10.208,-0 -28.435,-12.759 -28.435,-19.686c-0,-6.197 30.622,-20.414 44.839,-20.414c8.02,-0 10.208,-1.094 6.562,-3.281c-4.01,-2.552 -3.645,-3.646 1.823,-5.104c12.394,-3.281 15.675,-2.552 36.09,5.468Zm95.876,0.729c1.094,4.74 -0.365,6.198 -5.104,5.104c-4.01,-0.729 -7.291,-4.01 -8.02,-8.02c-1.093,-4.739 0.365,-6.197 5.104,-5.104c4.01,0.73 7.291,4.01 8.02,8.02Zm32.809,3.281c1.094,4.375 -1.093,6.198 -7.291,6.198c-10.207,-0.365 -22.602,-9.114 -19.685,-13.853c3.281,-5.468 25.883,0.729 26.976,7.655Zm73.639,-5.832c0.729,0.729 -0.729,3.281 -3.646,5.103c-4.01,2.917 -1.822,3.281 8.02,1.458c7.291,-1.093 13.853,-0.729 14.582,0.73c0.365,1.458 7.291,5.832 14.947,9.113c7.291,3.646 13.488,8.02 13.488,9.843c-0,4.739 -20.05,18.592 -26.612,18.592c-3.281,-0 -8.02,2.187 -10.572,4.739c-8.02,7.656 -24.425,13.488 -36.819,13.124c-9.843,-0 -10.572,-0.729 -4.375,-3.281c5.833,-2.552 5.104,-3.281 -5.103,-3.281c-13.124,-0.365 -12.395,-5.104 1.458,-9.114c4.01,-1.093 0.364,-1.093 -8.385,0c-10.207,1.094 -14.946,0.365 -13.488,-2.187c1.094,-1.823 8.02,-3.646 14.946,-3.646c6.927,0 12.395,-1.458 12.395,-3.645c0,-1.823 -7.291,-2.916 -17.134,-1.823c-13.123,1.458 -15.311,0.729 -8.384,-1.458l9.113,-3.281l-8.749,-0.364c-13.853,-0.729 -6.562,-4.375 14.947,-8.02l19.321,-2.917l-21.873,1.458c-14.217,1.094 -20.05,0.365 -16.405,-1.822c2.917,-1.823 9.114,-3.646 13.489,-3.646c4.374,0 8.749,-1.458 9.842,-2.916c0.729,-1.458 -4.374,-2.188 -11.665,-1.458c-12.03,1.093 -12.759,0.729 -6.198,-3.281c18.592,-11.666 44.111,-15.676 52.86,-8.02Zm238.414,-0.365c-5.833,4.739 -5.833,5.468 -0.365,3.646c3.281,-1.094 9.114,-3.281 12.759,-4.375c3.281,-1.094 2.188,0.365 -2.551,3.281c-5.104,2.916 -6.927,6.197 -4.74,7.655c2.188,1.094 4.74,0.729 6.198,-1.458c1.093,-1.823 5.103,-3.645 8.384,-3.645c4.739,-0 4.01,1.458 -2.551,5.832c-5.833,4.011 -9.479,4.74 -12.031,2.188c-2.187,-2.188 -6.197,-2.917 -9.478,-1.823c-3.645,1.458 -4.739,0.729 -2.916,-1.823c3.645,-5.832 -1.823,-5.103 -10.207,1.094c-4.01,2.916 -9.114,5.468 -10.937,5.468c-2.187,0 3.281,-5.104 12.395,-10.936c17.133,-11.666 28.07,-14.947 16.04,-5.104Zm-713.419,6.926c8.384,5.104 15.675,10.937 15.675,12.76c0,2.551 -24.06,-11.301 -36.09,-20.78c-6.197,-4.739 7.291,0.73 20.415,8.02Zm321.166,-2.916c1.823,6.197 -9.478,10.572 -14.582,5.468c-2.187,-2.187 -2.552,-5.468 -1.094,-8.02c3.281,-5.103 13.489,-3.281 15.676,2.552Zm36.09,10.572c1.094,2.916 0.365,7.291 -1.823,9.478c-5.468,5.468 -15.675,-2.916 -12.759,-10.207c2.552,-6.927 11.666,-6.562 14.582,0.729Zm21.144,7.291c-0,3.645 -2.917,7.291 -6.198,8.02c-6.561,1.094 -9.478,-9.843 -4.01,-15.311c4.375,-4.01 10.208,-0 10.208,7.291Zm-207.792,1.823c2.552,2.551 0.364,2.916 -7.291,1.093c-16.769,-4.01 -24.425,-9.478 -9.114,-6.926c6.927,1.094 14.218,3.645 16.405,5.833Zm167.692,-0.365c-0,8.02 -14.218,6.927 -15.676,-1.094c-1.094,-5.468 0.365,-6.561 7.291,-5.468c4.375,0.729 8.385,3.646 8.385,6.562Zm-21.509,0.365c3.646,6.197 -8.384,16.769 -13.488,11.665c-2.552,-2.552 -3.281,-6.926 -2.187,-9.843c2.552,-6.561 12.03,-7.655 15.675,-1.822Zm84.94,1.093c3.281,3.646 2.916,5.833 -1.458,9.479c-6.927,5.832 -14.947,-0.365 -11.666,-8.75c2.916,-7.291 7.656,-7.291 13.124,-0.729Zm-39.736,18.592c0,6.562 -9.114,9.478 -14.217,4.375c-5.468,-5.468 -5.104,-12.395 0.729,-14.582c5.468,-1.823 13.488,4.01 13.488,10.207Zm387.514,-9.478c25.883,0.365 42.652,1.823 42.652,4.01c0,2.187 -38.642,3.645 -108.271,3.645c-112.645,0 -140.715,-3.28 -51.401,-6.197c28.8,-1.093 52.495,-2.187 52.86,-2.552c0.364,-0.364 5.468,-0.364 10.936,0c5.468,0.365 29.528,1.094 53.224,1.094Zm-410.116,12.395c0.729,4.01 -1.093,6.197 -5.833,6.197c-7.29,-0 -13.123,-8.385 -8.749,-12.395c4.01,-4.374 13.489,-0.364 14.582,6.198Zm43.746,-2.188c1.823,6.198 -9.478,10.572 -14.582,5.469c-2.187,-2.188 -2.552,-5.469 -1.094,-8.021c3.281,-5.103 13.489,-3.28 15.676,2.552Zm-65.983,9.843c-1.458,3.281 -4.739,4.739 -8.02,3.646c-6.562,-2.552 -7.291,-11.301 -0.729,-13.489c6.197,-2.187 11.301,3.281 8.749,9.843Zm83.117,-1.458c-0,2.916 -2.917,5.833 -6.198,6.562c-4.739,0.729 -6.562,-1.094 -6.562,-6.562c0,-5.468 1.823,-7.291 6.562,-6.562c3.281,0.729 6.198,3.646 6.198,6.562Zm-406.471,-0.729c0,3.645 -25.883,16.404 -28.07,13.853c-1.093,-0.729 4.375,-5.104 12.395,-9.114c16.404,-8.749 15.675,-8.385 15.675,-4.739Zm21.873,-1.458c0,2.916 -40.465,24.789 -42.287,22.966c-1.094,-0.729 6.926,-6.562 17.498,-12.759c18.592,-10.936 24.789,-13.488 24.789,-10.207Zm18.228,0.364c-0,2.552 -51.037,32.08 -52.86,30.258c-1.458,-1.459 45.204,-31.351 50.308,-31.716c1.458,-0.365 2.552,0.365 2.552,1.458Zm16.769,1.458c-2.917,4.375 -46.662,30.258 -48.485,28.435c-1.458,-1.823 42.652,-30.986 47.391,-31.351c1.823,-0.365 2.187,1.094 1.094,2.916Zm522.032,21.509c0.729,2.551 -2.188,4.374 -7.291,4.739c-7.291,-0 -6.927,0.729 2.551,3.645c21.509,7.291 38.278,15.311 38.278,18.592c-0,1.823 -3.646,2.552 -8.02,1.094c-7.656,-1.823 -8.02,-1.823 -1.458,2.552c3.645,2.551 10.207,7.655 14.582,11.301l7.655,6.926l-8.02,-1.823c-12.395,-2.552 -10.207,0 6.197,8.385c14.582,7.291 29.164,20.779 29.164,26.247c0,1.823 -1.823,2.188 -4.374,0.729c-2.552,-1.458 -2.917,-1.093 -1.459,1.823c1.459,2.187 4.01,3.281 5.833,2.187c3.646,-2.187 14.582,16.405 14.582,24.06c-0,2.552 -6.197,-1.093 -13.488,-8.02l-13.853,-12.394l10.572,11.665c14.946,16.405 7.655,15.311 -9.478,-1.458c-7.656,-7.291 -13.853,-12.03 -13.853,-9.843c-0,1.823 3.281,5.469 7.291,7.656c3.645,2.552 9.113,8.384 11.301,12.759c3.645,6.926 2.187,6.197 -9.114,-3.645c-16.04,-13.853 -21.508,-15.311 -9.478,-2.552c4.739,5.103 6.926,9.113 5.103,9.113c-2.187,0 -9.113,-5.832 -16.04,-12.759c-6.561,-6.926 -13.123,-11.665 -14.217,-10.936c-0.729,1.093 2.916,6.926 8.749,12.759l10.572,10.936l-12.759,-1.822c-6.927,-1.094 -15.311,-2.188 -18.592,-2.188c-3.646,0 -7.291,-1.822 -8.385,-3.645c-1.458,-1.823 -4.01,-2.187 -6.197,-1.094c-1.823,1.094 -9.843,-3.645 -17.134,-10.936c-9.113,-8.749 -15.675,-12.759 -19.685,-10.937c-5.468,1.823 -5.468,2.917 -0.365,10.572c7.656,11.666 0.365,15.311 -12.394,6.198c-5.469,-4.01 -13.124,-8.02 -17.499,-9.479c-8.02,-2.551 -26.976,-20.414 -21.508,-20.414c1.823,-0 8.385,4.374 14.217,9.843c6.562,6.197 5.469,3.645 -2.916,-5.104c-8.02,-8.749 -13.488,-16.769 -12.03,-17.863c1.458,-1.458 0.365,-5.104 -2.187,-8.385c-2.188,-2.916 3.645,-1.093 13.123,4.74c24.425,13.852 24.79,10.207 0.365,-5.104c-10.572,-6.927 -19.686,-14.217 -19.686,-15.676c0,-3.281 0.729,-2.551 22.967,11.301c8.02,4.739 14.946,7.656 15.675,6.927c1.094,-0.729 -6.561,-6.927 -16.769,-13.489c-24.06,-15.311 -21.508,-17.498 4.01,-4.01c30.258,16.405 79.836,36.82 79.836,33.174c0,-2.187 -1.823,-3.645 -4.01,-3.645c-7.291,-0 -101.709,-47.756 -101.709,-51.401c0,-1.823 9.843,1.458 21.873,7.655c27.341,13.853 28.435,11.666 1.823,-3.281c-20.415,-11.665 -28.435,-19.321 -9.843,-9.843c15.311,7.656 37.184,16.405 37.184,14.947c-0,-1.094 -8.02,-5.833 -17.863,-10.937c-9.843,-4.739 -18.956,-10.571 -20.414,-12.394c-2.188,-4.01 37.548,12.759 44.839,18.592c2.187,2.187 4.374,2.187 4.374,0.364c0,-1.822 -9.113,-7.655 -20.414,-13.123c-11.301,-5.833 -19.686,-10.937 -18.592,-12.03c1.093,-1.094 10.207,2.187 20.415,7.29c22.966,11.666 24.789,7.291 2.187,-4.739c-21.144,-11.301 -18.592,-14.217 3.645,-4.374c9.114,4.01 15.676,5.833 14.947,4.374c-1.094,-1.822 -6.927,-5.103 -13.124,-7.655c-5.833,-2.552 -10.936,-5.833 -10.936,-7.656c-0,-4.374 59.421,16.77 61.244,21.509Zm97.698,-20.78c2.917,4.74 27.341,15.676 32.809,14.947c2.188,-0.365 6.198,1.823 8.75,4.739c8.384,10.207 -6.927,6.197 -29.529,-7.655c-12.03,-6.927 -21.508,-13.489 -21.508,-14.582c-0,-3.281 6.926,-1.459 9.478,2.551Zm67.077,23.331c-0,1.823 -7.656,-1.093 -33.538,-12.394c-9.843,-4.01 -17.499,-8.749 -17.499,-10.572c0,-1.458 11.666,2.552 25.519,9.114c14.217,6.562 25.518,12.759 25.518,13.852Zm-656.185,-20.414c-0,3.645 -44.84,31.351 -56.505,34.996c-7.656,2.552 11.301,-10.572 35.725,-24.424c7.291,-4.375 13.489,-9.114 13.489,-10.937c-0,-1.458 1.822,-2.916 3.645,-2.916c2.187,-0 3.646,1.458 3.646,3.281Zm107.906,2.187c-4.01,2.916 -9.479,5.468 -12.03,5.468c-2.552,0 -4.739,1.823 -4.739,3.646c-0,2.187 4.739,1.458 10.936,-1.823c5.833,-2.916 13.488,-5.468 17.134,-5.104c3.645,0 -0.365,3.646 -9.114,7.656c-21.508,9.478 -17.134,12.394 4.739,2.916c9.478,-4.01 18.227,-6.562 19.321,-5.468c1.094,0.729 -7.655,5.833 -19.321,10.936c-11.301,5.104 -20.05,10.208 -19.321,10.937c1.094,1.094 11.666,-2.552 24.06,-7.656c20.415,-9.113 33.539,-9.842 33.539,-2.187c-0,1.823 -9.843,7.656 -22.238,13.488c-30.257,14.582 -31.351,18.592 -1.093,5.104c39.735,-17.863 31.351,-8.385 -9.843,11.301c-20.779,9.843 -35.726,17.863 -32.809,18.227c2.551,0 18.956,-6.561 36.09,-14.582c32.444,-15.311 46.662,-17.862 17.133,-3.28c-9.113,4.739 -18.591,10.571 -21.143,13.488c-2.188,2.916 4.374,1.093 14.946,-4.375c10.207,-5.103 18.957,-8.749 18.957,-7.655c-0,0.729 -9.114,7.291 -20.051,14.582c-10.936,6.926 -20.05,14.582 -20.05,17.133c0,3.281 1.094,3.281 2.917,0.729c3.645,-5.468 29.893,-20.779 32.08,-18.956c0.729,1.094 -5.104,6.197 -13.488,11.666c-8.02,5.468 -13.853,10.936 -12.759,12.03c1.093,1.093 6.197,-1.459 11.665,-5.833c14.582,-11.301 14.946,-6.562 0.729,6.926l-12.03,11.666l12.395,-8.385c7.291,-4.739 11.665,-6.197 10.572,-3.281c-0.73,2.552 -6.562,7.656 -13.124,10.937c-6.197,3.645 -13.853,8.02 -16.405,10.207c-2.552,2.187 -10.207,5.104 -16.769,6.197c-10.936,1.823 -12.03,1.458 -7.655,-3.645c7.655,-9.114 -0.73,-6.198 -11.301,4.01c-7.291,6.926 -11.666,8.749 -15.676,6.197c-5.468,-2.916 -5.468,-4.01 1.458,-10.207c8.02,-7.291 10.208,-16.04 2.552,-9.478c-2.916,2.187 -6.197,2.916 -7.655,1.458c-1.094,-1.458 -8.385,3.281 -15.676,10.207c-13.488,12.759 -13.488,8.749 0,-7.655c4.375,-5.104 0.365,-2.188 -8.02,6.561c-16.04,16.041 -25.518,18.228 -12.759,3.281c3.645,-4.739 2.187,-3.645 -3.281,2.188c-12.759,13.123 -17.863,9.842 -5.833,-4.01c5.468,-6.198 3.646,-5.469 -5.104,2.551c-14.946,13.853 -18.227,11.666 -5.468,-2.916c6.927,-8.02 6.198,-7.655 -3.281,1.094c-6.562,5.832 -10.936,12.03 -9.842,13.488c1.093,1.823 -0.73,2.187 -3.646,1.094c-4.739,-1.823 -4.739,-3.646 -1.458,-9.843c4.01,-8.02 4.01,-8.02 -3.646,-1.094c-4.374,3.646 -10.207,5.833 -13.488,4.739c-8.384,-3.281 8.02,-30.622 27.706,-45.933c8.749,-6.562 16.04,-14.217 16.04,-17.133c-0,-2.552 3.281,-7.291 7.291,-10.208c5.468,-4.374 5.833,-5.832 1.823,-5.832c-9.479,-0.365 10.207,-14.218 26.611,-18.592c8.385,-2.552 13.124,-5.104 10.937,-5.833c-12.395,-4.375 -0,-13.853 28.07,-21.508c22.967,-6.198 29.164,-6.198 20.415,0.364Zm474.276,14.582c16.404,9.843 29.164,18.592 28.435,19.321c-1.823,2.187 -59.422,-31.716 -62.338,-36.455c-3.281,-5.103 -0.365,-3.645 33.903,17.134Zm19.321,-0.365c13.124,7.291 21.508,13.124 18.956,13.124c-9.113,0 -48.12,-23.695 -48.12,-29.164c0,-3.645 1.094,-4.01 2.916,-1.458c1.459,2.552 13.124,10.208 26.248,17.498Zm52.859,-12.03c9.114,4.01 16.04,8.385 15.311,9.479c-2.187,1.822 -35.361,-12.03 -35.361,-14.947c0,-3.281 1.094,-2.916 20.05,5.468Zm-438.186,3.281c1.094,4.01 -1.458,11.301 -5.832,17.134c-7.656,10.207 -7.656,10.207 4.739,-0.729c12.394,-11.301 11.665,-6.197 -1.094,8.02c-4.01,4.739 -5.833,8.385 -3.645,8.385c2.187,-0 4.739,-2.188 5.832,-4.74c0.729,-2.187 2.917,-3.28 4.375,-1.822c5.104,4.739 -6.197,14.217 -13.853,11.665c-6.197,-1.822 -6.562,-1.458 -2.187,3.281c4.374,5.104 6.926,4.01 20.414,-9.114c14.947,-14.581 14.947,-14.581 14.218,-5.103c-1.094,9.478 -10.572,22.966 -25.883,35.725c-9.114,8.021 -12.759,8.021 -12.759,0.365c-0,-5.104 -0.729,-5.104 -7.291,0.729c-4.375,4.01 -9.478,7.291 -12.03,8.02c-25.154,5.833 -24.425,5.833 -24.425,-2.916c0,-4.739 3.646,-14.582 7.656,-21.509c5.103,-8.02 6.197,-13.123 3.645,-13.852c-2.552,-0.729 -1.823,-5.104 2.187,-12.395c6.927,-11.301 32.445,-26.247 38.642,-22.237c2.188,1.093 2.552,0.364 1.094,-1.823c-1.458,-2.552 -1.094,-4.375 0.729,-4.375c1.823,0 4.375,3.281 5.468,7.291Zm-257.006,8.385c-21.143,13.124 -36.454,20.05 -30.257,14.217c7.655,-7.291 40.465,-26.247 45.204,-26.247c2.916,-0 -3.646,5.468 -14.947,12.03Zm298.929,-5.833c1.823,6.197 -9.478,10.572 -14.582,5.468c-2.187,-2.187 -2.552,-5.468 -1.093,-8.02c3.281,-5.103 13.488,-3.281 15.675,2.552Zm18.957,0.729c-0,8.749 -12.395,8.02 -13.853,-0.729c-0.729,-4.374 1.094,-6.197 6.197,-6.197c5.104,-0 7.656,2.187 7.656,6.926Zm21.873,0.365c-0,7.655 -8.75,10.207 -12.76,3.645c-2.916,-5.103 1.094,-10.936 7.656,-10.936c2.916,-0 5.104,3.281 5.104,7.291Zm51.036,-0.365c13.488,7.291 25.518,18.957 25.518,24.789c0,2.917 -1.822,4.01 -4.01,2.552c-2.187,-1.458 0,4.739 5.469,13.853c5.103,9.114 9.478,20.05 9.478,24.425c-0,7.655 -1.094,8.02 -15.311,5.833c-8.749,-1.459 -19.321,-5.833 -23.696,-9.843c-7.291,-6.927 -7.655,-6.927 -9.113,-0.365c-1.459,5.468 -5.104,2.917 -20.78,-13.124c-18.591,-19.321 -22.966,-30.257 -6.926,-16.404c7.656,6.197 7.656,5.833 -0.365,-3.281c-5.103,-5.468 -7.29,-9.843 -5.103,-9.843c1.823,0 5.103,-3.281 6.926,-7.291c2.917,-6.926 4.375,-6.197 21.509,8.02l18.227,15.311l-16.405,-17.863c-14.217,-15.311 -14.946,-16.769 -5.468,-10.936c10.936,6.562 10.936,6.562 4.739,-0.729c-3.645,-4.01 -6.562,-8.02 -6.562,-9.114c0,-3.281 12.395,-1.093 21.873,4.01Zm-342.674,-1.822c-0,2.187 -49.214,31.351 -53.224,31.351c-4.739,-0 43.016,-32.081 48.849,-32.445c2.187,-0.365 4.375,0.364 4.375,1.094Zm565.048,13.852c13.853,8.385 24.789,16.04 24.06,16.769c-1.823,1.459 -53.224,-28.07 -53.224,-30.621c0,-2.917 4.375,-1.094 29.164,13.852Zm-9.843,18.592c4.375,3.646 -4.01,0.365 -18.227,-7.291c-14.582,-7.655 -26.612,-15.311 -26.612,-16.769c-0,-3.281 32.445,14.217 44.839,24.06Zm-312.781,12.395c-2.917,20.414 0.364,19.685 4.739,-0.729c1.822,-9.114 5.103,-14.218 9.113,-14.947c6.198,-0.729 6.562,1.458 4.375,28.07c-1.823,19.686 -1.094,28.8 1.458,28.8c2.552,-0 4.01,-11.301 4.375,-30.258c0.364,-22.602 1.093,-26.976 3.281,-17.133l2.552,12.759l1.093,-12.759c0.729,-12.76 1.094,-12.395 5.833,5.468l5.104,18.227l-2.188,-18.227c-1.093,-13.124 -0.729,-16.769 1.823,-12.759c2.187,2.916 4.01,8.384 4.01,11.665c0,3.646 1.823,6.197 4.375,5.468c5.468,-1.093 11.665,24.06 8.749,35.726c-1.458,5.104 -4.739,9.114 -8.02,9.114c-4.01,-0 -5.104,2.551 -3.281,12.03c1.823,9.478 0.364,13.852 -6.927,21.873c-5.103,5.832 -9.478,13.852 -9.478,18.591c0,4.74 -2.187,10.572 -5.104,12.76c-4.01,3.645 -6.197,2.551 -10.936,-4.01c-3.281,-4.375 -5.833,-10.937 -5.833,-14.582c0,-3.646 -1.458,-6.562 -2.916,-6.562c-4.739,-0 -11.666,-17.134 -11.666,-27.706c0,-5.103 -2.551,-13.123 -5.832,-18.227c-6.198,-9.478 -5.469,-36.819 1.458,-41.194c1.823,-1.094 4.374,-5.833 5.833,-10.572c4.374,-13.853 6.926,-8.749 4.01,9.114Zm83.116,32.809c-2.551,0.729 -4.739,3.281 -4.739,5.104c0,1.458 2.188,2.187 4.739,1.458c2.552,-1.094 10.208,7.655 18.228,19.686c9.843,14.946 16.04,21.508 21.144,21.143c3.645,-0.364 6.926,-1.093 6.926,-1.458c-0,-3.645 -19.686,-30.257 -21.144,-28.799c-0.729,1.093 2.187,6.926 6.562,13.124c4.375,6.197 7.291,12.394 6.197,13.488c-1.093,1.093 -7.655,-6.927 -14.582,-17.498c-8.384,-13.124 -11.301,-20.415 -8.749,-22.238c5.833,-3.645 12.03,2.552 28.435,26.977c8.02,11.665 15.311,21.143 16.769,21.143c1.094,0 -1.093,-4.374 -4.374,-9.842c-3.646,-5.104 -9.843,-15.311 -13.853,-22.602c-6.197,-10.572 -6.562,-12.03 -1.458,-8.02c5.103,4.01 6.197,4.01 6.197,-0c-0,-3.646 1.094,-3.646 4.01,-0.729c2.187,2.187 6.197,3.28 8.749,2.551c4.739,-1.822 27.341,29.164 27.341,37.549c0,2.916 3.281,11.301 7.291,19.321c9.843,19.321 9.114,24.789 -1.823,14.582c-9.113,-8.75 -9.113,-8.75 1.823,12.759c5.833,12.03 10.937,27.341 10.937,34.267c-0,11.666 -0.365,12.03 -6.562,6.562c-11.301,-10.207 -13.853,-6.926 -3.281,4.01c9.113,9.478 16.04,26.248 10.936,26.248c-1.458,-0 -5.833,-2.917 -9.843,-6.198c-5.103,-4.374 -4.739,-3.281 1.459,3.646c5.103,5.832 9.113,14.217 9.113,19.321c0.365,10.572 -2.187,10.936 -10.572,1.822c-4.01,-4.374 -9.113,-6.197 -12.394,-4.739c-5.468,1.823 -5.468,1.459 -1.094,-4.01c5.833,-7.655 1.094,-8.02 -8.749,-1.093c-6.197,4.01 -8.02,4.01 -12.03,-0c-3.646,-4.01 -3.281,-5.833 2.916,-9.479c9.843,-6.197 9.114,-11.665 -0.729,-6.197l-8.384,4.375l14.582,-16.769l-8.385,4.374c-4.739,2.552 -7.656,6.562 -6.926,9.114c1.093,2.552 0.364,6.926 -1.094,9.843c-2.552,3.645 -4.739,1.458 -9.114,-9.114c-4.374,-10.572 -6.926,-13.124 -9.113,-9.478c-2.552,4.01 -4.01,2.551 -7.291,-5.104c-2.188,-5.833 -7.291,-14.582 -11.666,-20.05c-7.291,-9.114 -7.291,-8.02 -0.729,8.384c1.823,4.74 1.094,6.198 -2.187,5.104c-5.469,-1.823 -9.114,-6.926 -15.311,-22.966c-2.917,-8.385 -4.375,-9.479 -5.469,-4.739c-3.645,14.581 -10.936,6.197 -22.237,-23.696c-9.478,-24.789 -10.207,-30.622 -2.187,-16.04c7.655,14.217 10.936,9.843 3.281,-4.739c-3.281,-6.562 -5.104,-12.395 -4.01,-13.489c0.729,-1.093 4.374,3.281 7.655,9.843c3.281,6.562 6.927,10.937 7.656,9.843c1.093,-1.094 -0.729,-6.926 -3.646,-13.124c-3.281,-5.832 -5.833,-13.123 -5.833,-15.675c0.365,-2.552 3.646,1.458 7.656,9.113c4.01,8.021 8.385,13.489 9.114,12.395c1.093,-1.094 -1.459,-8.749 -5.833,-17.134c-10.207,-20.05 -7.291,-22.602 3.281,-3.281c4.739,8.02 9.114,13.853 9.843,13.124c0.729,-0.729 -2.917,-9.114 -8.02,-18.592c-13.489,-24.424 -8.75,-24.789 6.197,-0.729c6.562,11.301 12.394,19.686 13.124,19.321c0.364,-0.729 -5.104,-12.759 -12.395,-26.612c-16.405,-31.351 -12.03,-27.341 16.405,15.676c21.872,32.444 29.892,41.923 29.892,34.267c0,-1.823 -1.093,-4.01 -2.551,-4.739c-3.281,-1.094 -41.194,-57.963 -48.121,-71.087c-4.01,-7.655 -1.093,-11.301 8.75,-11.301c2.187,0 1.458,0.729 -0.73,1.823Zm-133.424,5.833c4.01,-1.458 1.823,4.01 -5.833,14.946c-6.562,9.479 -11.301,17.863 -10.572,18.957c1.094,0.729 8.021,-7.656 15.676,-18.592c7.291,-10.937 14.582,-20.05 15.311,-20.05c1.094,-0 -3.281,9.113 -9.478,20.05c-6.198,10.936 -16.405,29.528 -22.967,40.829c-6.562,11.301 -9.843,19.321 -7.291,17.863c2.188,-1.458 13.489,-18.956 24.79,-39.007c11.301,-20.05 21.143,-35.725 22.237,-34.996c0.729,1.093 -0,5.104 -2.187,9.114c-5.833,10.571 -5.104,13.488 2.187,7.655c4.01,-3.281 1.823,2.552 -5.104,15.676c-12.759,23.695 -10.572,29.163 2.188,6.197c9.842,-17.134 14.581,-16.769 5.832,0.364c-3.281,6.562 -5.103,12.395 -4.01,13.489c0.729,1.093 4.375,-3.281 7.656,-9.843c9.113,-17.498 10.936,-10.207 1.823,8.02c-7.291,15.311 -7.291,15.311 -0.365,6.562c4.01,-5.104 7.655,-10.572 7.655,-12.395c0,-1.823 1.094,-2.552 2.188,-1.458c1.093,1.458 -0.729,7.291 -3.646,13.488c-7.655,14.218 -7.291,20.05 0,6.562c6.927,-12.759 10.208,-10.936 5.104,2.552c-2.187,6.562 -2.187,9.114 -0,7.655c5.104,-3.281 4.739,-1.093 -4.01,21.873c-7.656,20.779 -16.769,28.07 -12.759,9.843l2.552,-9.843l-7.656,10.937c-4.01,5.832 -7.291,13.488 -7.291,16.769c0,3.281 -3.645,8.749 -8.02,12.759l-7.655,6.926l2.187,-12.03c3.281,-15.675 -1.458,-12.394 -10.207,6.927c-5.469,12.03 -7.291,13.853 -9.114,8.384c-2.187,-5.468 -3.646,-4.374 -7.291,6.927c-5.104,13.488 -10.936,18.227 -10.936,8.384c-0,-2.916 -1.459,-6.562 -3.646,-7.655c-1.823,-1.094 -2.552,-0 -1.458,3.281c1.094,2.916 -0.365,8.749 -2.917,12.759c-4.739,6.926 -5.832,6.926 -12.394,1.823c-6.562,-5.104 -6.562,-5.469 1.823,-2.917c5.832,1.458 7.655,1.094 6.197,-1.822c-1.458,-2.188 -0.729,-4.01 1.823,-4.01c2.187,-0 0.364,-3.281 -4.375,-6.927l-8.749,-6.926l15.675,-30.987c16.405,-32.809 18.228,-38.277 10.208,-30.986c-2.917,2.552 -4.375,5.832 -3.646,7.291c0.729,1.093 0.365,2.916 -1.458,3.645c-2.916,1.094 -22.602,43.381 -22.602,48.485c0,1.823 2.917,6.197 6.562,10.207c4.739,5.833 5.104,6.927 0.729,5.468c-2.916,-1.093 -7.655,0.365 -10.207,2.917c-3.646,4.01 -2.917,5.468 2.916,8.749c4.01,2.187 7.291,5.468 7.291,7.655c0,1.823 -5.104,0.73 -11.665,-2.551c-11.301,-5.833 -11.666,-5.833 -18.228,2.187c-9.478,11.665 -8.02,2.916 1.458,-9.478l8.385,-10.572l-9.843,6.197c-9.478,6.197 -9.843,6.197 -8.384,-1.094c0.729,-4.374 3.281,-9.842 5.832,-12.759c3.281,-4.01 2.917,-5.103 -0.729,-5.103c-2.551,-0 -1.093,-4.01 4.375,-9.479c7.655,-8.384 7.655,-9.113 1.458,-5.832c-6.562,3.281 -7.655,2.551 -7.291,-5.833c0.365,-14.582 5.468,-30.258 13.124,-41.559c9.843,-13.488 8.384,-16.769 -2.187,-6.561c-10.937,10.207 -11.666,6.926 -2.188,-12.76c3.646,-8.02 9.479,-20.414 12.395,-27.341c5.833,-14.217 24.425,-37.913 26.976,-34.996c1.094,1.094 -1.822,7.291 -6.197,13.853c-7.291,10.936 -6.562,10.572 5.468,-2.552c14.218,-15.676 13.853,-12.759 -2.552,12.759l-10.571,16.405l10.207,-12.395c5.468,-6.562 14.217,-16.405 18.956,-21.873l8.385,-9.478l-6.197,10.936c-3.646,5.833 -10.572,16.405 -15.311,22.967c-5.104,6.562 -8.385,13.124 -7.291,13.853c1.093,1.093 5.468,-3.281 9.843,-9.479c4.374,-6.197 9.113,-10.571 10.207,-9.478c0.729,1.094 -0.365,4.375 -2.917,7.656c-2.551,2.916 -3.28,5.468 -1.458,5.468c4.01,-0 28.07,-36.455 25.883,-38.642c-1.093,-1.094 -5.468,4.01 -9.843,11.301c-4.374,7.291 -8.749,12.394 -9.842,11.301c-0.73,-0.729 2.916,-8.385 8.384,-16.769c5.833,-8.385 10.937,-13.853 11.666,-11.666c0.729,2.187 3.645,2.916 6.926,1.823Zm267.942,19.685c5.469,5.469 10.208,11.301 10.208,12.76c-0,4.739 -18.228,-8.02 -22.238,-15.676c-5.103,-9.843 0,-8.385 12.03,2.916Zm-412.667,8.385c-4.375,5.833 -9.478,10.936 -11.301,10.936c-4.01,0 -1.458,-5.832 6.926,-15.675c9.114,-10.572 12.759,-6.927 4.375,4.739Zm5.468,70.722c-5.468,9.114 -11.666,17.863 -13.853,19.321c-3.645,2.187 1.823,-8.02 15.676,-30.622c9.478,-15.311 8.02,-5.468 -1.823,11.301Zm9.478,1.094c-6.197,9.478 -11.301,16.404 -11.301,15.311c0,-4.739 19.321,-36.455 21.144,-34.632c0.729,1.093 -3.281,9.843 -9.843,19.321Zm194.669,-15.311c11.3,4.739 14.217,4.374 21.872,-1.458c4.01,-3.281 6.198,-4.375 4.739,-2.917c-5.103,6.562 8.75,34.997 20.78,42.652c15.311,9.479 25.153,24.06 21.508,32.08c-4.739,10.937 -4.739,16.77 -0.365,22.602c3.646,4.74 3.646,4.74 -1.458,1.094c-8.384,-6.926 -11.301,-1.094 -5.103,9.478c4.739,7.291 3.645,6.927 -4.375,-2.187c-8.02,-8.749 -12.395,-11.301 -18.592,-9.478c-10.207,2.552 -10.207,5.103 1.458,16.04c5.104,4.739 12.759,13.488 17.134,19.685l7.291,10.937l-11.666,-10.937c-17.133,-15.675 -34.996,-38.642 -28.07,-36.09c3.281,1.458 5.833,0.365 5.833,-2.187c0,-2.552 2.552,-3.646 5.833,-2.187c2.916,1.093 4.374,0.729 3.281,-1.459c-1.094,-2.187 -4.375,-3.645 -6.927,-3.645c-2.916,0 -6.926,-2.552 -9.478,-5.468c-2.916,-3.281 -2.916,-5.468 -0.729,-5.468c2.187,-0 2.916,-4.01 1.823,-10.208c-1.094,-5.468 -2.188,-13.123 -2.917,-17.133c-0.364,-4.01 -1.093,-8.385 -1.458,-10.208c0,-1.458 -1.823,-2.552 -4.01,-2.552c-2.187,0 -3.645,38.278 -3.645,107.542c-0,69.264 -1.459,107.541 -3.646,107.541c-3.645,0 -4.374,-38.642 -3.645,-166.962c-0,-30.258 -0.729,-55.412 -1.823,-55.412c-3.645,0 -9.843,19.686 -10.936,35.362c-0.365,9.478 0.729,15.675 2.916,15.675c2.552,0 2.552,1.458 -0.365,4.375c-3.645,3.645 -5.468,3.645 -8.02,-0.729c-2.551,-3.646 -3.645,-4.01 -3.645,-1.094c-0,2.552 -1.823,4.739 -4.01,4.739c-2.187,0 -3.281,-2.552 -1.823,-5.468c3.281,-9.478 -0.364,-6.198 -15.675,13.123c-8.385,10.572 -14.947,16.405 -14.947,13.853c0.365,-2.916 5.104,-10.572 10.937,-17.498c12.03,-13.853 12.03,-17.863 0.364,-11.301c-6.926,3.646 -7.655,2.916 -7.655,-7.655c-0,-8.75 3.645,-14.582 14.582,-24.79c14.946,-13.488 25.882,-34.996 22.601,-43.745c-0.729,-2.917 -0.364,-4.375 1.459,-3.281c1.822,1.093 6.562,3.281 10.572,4.739Zm216.541,17.134c4.739,7.655 7.291,13.852 6.197,13.852c-2.916,0 -20.415,-26.612 -20.415,-30.622c0,-4.739 4.375,0.365 14.218,16.77Zm129.779,-7.656c9.113,4.375 11.3,6.197 5.468,5.104c-5.104,-1.094 -15.676,-2.917 -23.696,-4.375c-11.665,-1.823 -12.759,-2.916 -7.291,-5.103c9.478,-3.646 8.749,-3.646 25.519,4.374Zm-56.505,33.903c6.562,12.03 10.572,20.415 8.384,19.321c-4.01,-2.552 -30.257,-45.204 -30.257,-49.214c-0,-4.739 10.207,9.114 21.873,29.893Zm26.612,6.562c6.926,10.936 8.02,15.311 2.916,12.03c-3.281,-1.823 -22.237,-33.903 -22.237,-37.548c-0,-2.188 10.936,12.394 19.321,25.518Zm6.197,-8.749c-0,1.822 2.552,6.197 5.833,10.207c5.468,6.926 5.832,6.926 3.281,-0.365c-1.459,-5.103 0.364,-4.01 6.926,3.646c4.739,5.833 8.02,11.665 7.291,12.395c-0.729,1.093 -4.01,-1.459 -7.291,-5.469c-5.468,-6.562 -5.468,-6.562 -3.281,1.094c3.646,13.124 -0.364,9.843 -10.207,-8.02c-5.104,-9.114 -7.656,-16.405 -5.833,-16.405c1.823,0 3.281,1.459 3.281,2.917Zm-352.153,50.672c-3.281,5.468 -10.207,14.217 -14.946,19.321l-8.749,9.113l7.655,-13.852c4.375,-7.291 9.478,-13.489 11.301,-13.489c1.823,0 3.281,-2.551 3.281,-5.468c-0,-2.916 1.823,-5.468 4.01,-5.468c2.552,0 1.458,4.01 -2.552,9.843Zm13.488,0.364c-5.468,10.208 -29.528,38.642 -29.528,34.632c0,-1.822 4.739,-8.749 10.207,-15.675c5.833,-6.927 12.395,-16.769 14.947,-21.144c2.552,-4.739 5.468,-7.655 6.562,-6.926c0.729,1.093 -0,5.103 -2.188,9.113Zm10.937,2.188c-2.552,2.916 -3.281,7.655 -1.823,9.842c1.458,2.552 1.094,3.281 -1.094,2.188c-1.822,-1.459 -10.571,7.655 -19.321,19.321c-16.404,22.966 -21.872,27.705 -13.852,13.488c7.291,-13.488 37.548,-53.224 39.006,-51.401c0.729,0.729 -0.729,3.645 -2.916,6.562Zm-129.779,4.739c6.926,5.468 6.926,5.468 -3.645,3.281c-8.021,-1.823 -9.479,-1.459 -5.469,1.458c4.739,3.281 4.739,4.01 0,6.926c-8.02,5.468 -10.936,1.094 -6.562,-8.749c4.74,-10.572 5.833,-10.936 15.676,-2.916Zm296.377,-1.094c4.739,2.916 13.124,16.769 10.207,16.769c-1.093,0 -5.103,-3.645 -9.478,-8.02c-4.01,-4.374 -7.291,-5.833 -7.291,-3.645c0,3.281 -1.823,3.281 -7.291,-0c-4.01,-2.552 -7.291,-5.833 -7.291,-7.291c0,-2.917 15.311,-1.458 21.144,2.187Zm-101.344,51.401c-0,4.01 -33.174,-32.444 -37.549,-41.558c-1.458,-3.281 6.198,4.01 17.134,16.04c11.301,12.03 20.415,23.331 20.415,25.518Zm-80.201,-18.592c-8.02,10.937 -13.123,20.78 -11.301,21.873c1.823,1.458 7.656,-5.103 12.76,-14.217c5.468,-9.114 11.301,-16.405 13.488,-16.405c1.823,0 -3.281,9.843 -11.301,21.873c-8.02,12.03 -15.676,21.873 -16.769,21.873c-1.094,-0 -0.729,-1.823 0.729,-4.01c1.093,-2.187 0.364,-5.468 -2.187,-6.927c-3.281,-2.187 -1.094,-8.02 9.478,-23.331c8.02,-11.301 15.675,-20.414 17.133,-20.414c1.459,-0 -3.645,9.113 -12.03,19.685Zm76.555,28.8c0,1.822 -6.561,-3.646 -14.582,-12.395c-8.384,-9.114 -13.488,-13.124 -12.03,-8.749c2.188,6.562 1.823,6.926 -4.01,2.187c-4.739,-4.01 -5.103,-5.833 -1.822,-8.02c3.645,-2.187 3.645,-4.01 -0,-9.478c-2.552,-3.646 3.645,2.187 13.852,13.124c10.208,10.936 18.592,21.508 18.592,23.331Zm-11.301,-0.73l5.469,8.75l-8.02,-6.927c-10.208,-8.749 -14.947,-4.739 -6.198,5.104c5.104,5.468 5.468,7.291 1.458,7.655c-3.645,0 -4.01,0.729 -0.364,2.188c4.739,1.822 6.197,8.749 1.823,8.02c-6.927,-1.094 -8.385,0.729 -5.104,6.926c2.552,5.104 2.187,6.562 -2.916,6.562c-4.74,-0 -6.198,-3.646 -6.927,-16.769c-0.729,-17.134 5.104,-33.903 11.301,-31.716c2.187,0.729 6.197,5.104 9.478,10.207Zm-54.317,10.208c-2.187,4.374 -3.281,9.114 -2.187,10.572c1.093,1.458 -1.459,4.739 -5.469,7.291c-8.749,5.832 -8.749,3.281 1.094,-14.218c8.02,-14.217 14.217,-17.498 6.562,-3.645Z" style="fill-rule:nonzero;"/><path d="M600.184,365.328c-5.833,10.572 -10.937,20.415 -10.937,21.873c0,6.926 4.375,1.094 14.582,-18.956c13.488,-26.977 11.301,-28.8 -3.645,-2.917Z" style="fill-rule:nonzero;"/><path d="M711.371,335.435c-5.104,10.572 -8.75,20.05 -7.656,21.144c2.916,2.552 3.646,1.458 12.759,-18.956c10.572,-24.06 6.927,-25.883 -5.103,-2.188Z" style="fill-rule:nonzero;"/><path d="M442.699,455.736c6.197,7.291 5.468,12.759 -1.093,7.291c-10.937,-9.114 -5.104,2.552 6.197,13.124c6.562,5.832 9.114,7.291 5.468,2.916c-8.385,-10.207 -8.02,-14.946 1.094,-6.926c4.01,3.645 7.291,5.103 7.291,2.916c-0,-1.823 -5.469,-8.02 -11.666,-14.217c-6.562,-5.833 -9.843,-8.02 -7.291,-5.104Z" style="fill-rule:nonzero;"/><path d="M576.853,450.997c-8.385,8.02 -9.843,8.749 -8.02,3.281c2.551,-6.927 2.187,-6.927 -5.104,-0.365c-8.749,8.02 -9.843,15.676 -1.094,8.749c5.468,-4.374 5.833,-4.374 3.646,1.823c-2.188,5.833 -1.823,6.197 2.916,2.187c5.833,-5.103 21.508,-25.518 19.321,-25.518c-0.729,0 -5.833,4.375 -11.665,9.843Z" style="fill-rule:nonzero;"/><path d="M736.889,656.237c5.833,5.833 11.301,10.207 12.03,9.114c2.552,-2.552 -14.217,-20.05 -18.957,-20.05c-1.822,-0 1.094,4.739 6.927,10.936Z" style="fill-rule:nonzero;"/><path d="M366.873,572.391c-10.936,5.833 -18.227,10.572 -16.404,10.572c6.197,-0.365 47.755,-20.779 41.923,-21.144c-2.917,0 -14.582,4.739 -25.519,10.572Z" style="fill-rule:nonzero;"/><path d="M321.305,652.592c-5.833,6.197 -8.749,10.936 -6.927,10.936c4.74,0 21.509,-17.498 18.957,-20.05c-0.729,-1.094 -6.197,3.281 -12.03,9.114Z" style="fill-rule:nonzero;"/><path d="M571.02,577.859c6.926,6.927 13.853,12.76 16.04,12.76c1.823,-0 -1.823,-5.833 -8.749,-12.76c-6.927,-6.926 -13.853,-12.759 -16.04,-12.759c-1.823,0 1.822,5.833 8.749,12.759Z" style="fill-rule:nonzero;"/><path d="M578.311,639.832c-0,3.646 21.873,38.278 24.424,38.278c1.823,-0 -16.04,-32.445 -21.143,-38.278c-1.823,-1.822 -3.281,-1.822 -3.281,0Z" style="fill-rule:nonzero;"/><path d="M625.702,647.123c-0,3.646 19.321,30.987 20.779,29.529c1.094,-0.729 -2.916,-8.385 -8.384,-16.405c-9.114,-14.217 -12.395,-17.498 -12.395,-13.124Z" style="fill-rule:nonzero;"/><path d="M642.107,752.842c1.458,4.01 5.103,14.217 8.02,22.967c2.916,8.749 6.197,14.946 6.926,14.217c2.187,-1.823 -9.843,-36.455 -14.217,-40.829c-2.552,-2.552 -2.552,-1.094 -0.729,3.645Z" style="fill-rule:nonzero;"/><path d="M272.091,702.899c-28.799,19.321 -85.669,60.88 -104.261,76.92c-11.665,9.842 -21.872,17.498 -22.966,16.404c-3.281,-3.281 27.706,-31.351 58.692,-53.224c17.498,-12.394 30.987,-24.06 29.893,-25.518c-1.094,-1.823 -0.729,-2.916 1.094,-2.552c6.561,1.094 12.03,-0.364 12.03,-3.645c-0,-4.375 -10.572,-8.385 -14.947,-5.469c-4.374,2.552 -52.13,5.469 -49.578,2.917c1.093,-1.094 9.843,-3.281 19.685,-5.104l17.499,-2.916l-18.957,-0.365c-18.227,-0.364 -19.321,0 -24.789,12.03c-3.281,6.927 -9.114,15.311 -13.124,18.957c-3.645,3.281 -6.926,8.02 -6.926,10.572c-0,2.187 -4.01,12.759 -9.114,23.331c-11.301,23.331 -14.946,38.642 -9.478,41.923c2.187,1.458 14.217,-0 26.612,-3.646c12.759,-3.281 28.435,-6.926 34.632,-7.655c10.572,-1.823 13.853,-5.469 29.164,-32.445c9.842,-16.769 18.956,-30.622 20.414,-30.622c2.917,0 -10.936,25.883 -24.06,44.839c-6.926,10.208 -7.291,15.311 -0.364,10.572c4.374,-2.916 32.809,-52.859 36.09,-62.702c1.458,-4.01 3.645,-7.291 5.833,-7.291c2.916,0 -10.572,27.341 -26.612,53.589c-5.104,8.749 -5.833,12.03 -2.188,12.03c2.552,-0.365 11.301,-13.489 19.321,-29.529c8.02,-16.04 15.676,-30.257 17.134,-30.986c3.646,-2.552 17.498,-5.104 17.498,-3.281c0,3.281 -30.257,53.224 -33.538,55.046c-3.281,2.188 6.926,-17.862 21.508,-41.558c5.833,-9.478 4.375,-14.582 -1.822,-7.291c-4.375,5.468 -29.893,50.308 -29.893,52.86c-0,0.729 3.645,1.093 8.384,0.364c5.833,-0.729 13.489,-10.207 27.341,-33.174c10.572,-17.863 18.592,-33.538 17.134,-34.632c-1.094,-1.458 -3.281,-0.729 -4.739,1.094c-4.739,6.926 -12.759,6.197 -10.207,-0.729c1.822,-5.833 1.458,-5.468 -3.281,0.364c-3.646,4.739 -5.469,5.469 -5.469,2.188c0,-2.552 2.552,-8.02 6.198,-11.666c7.291,-8.02 2.552,-8.02 -9.843,0Zm-52.859,14.217c-5.833,0.73 -18.957,2.917 -28.435,4.375c-9.843,1.823 -16.405,1.823 -14.582,0.365c4.739,-4.375 15.676,-6.562 35.726,-6.198c10.207,0 13.488,0.729 7.291,1.458Zm-18.228,11.666c-8.02,1.458 -18.592,4.01 -23.695,5.468l-9.114,2.552l9.114,-5.468c5.103,-3.281 15.675,-5.468 23.695,-5.104l14.582,0.365l-14.582,2.187Zm19.321,35.361c-4.374,8.02 -11.301,17.498 -14.946,21.508c-6.562,7.291 -6.562,7.291 -4.01,0c2.552,-7.291 2.552,-7.291 -5.104,-0.364c-10.936,9.478 -10.207,5.468 3.281,-13.853c12.759,-19.321 17.134,-21.873 8.749,-5.468c-9.478,18.227 -3.281,16.404 7.291,-2.187c5.468,-9.114 10.572,-16.041 11.666,-15.311c0.729,1.093 -2.188,8.02 -6.927,15.675Z" style="fill-rule:nonzero;"/></g></svg>